<svg width="48" height="42" viewBox="0 0 48 42" fill="none" xmlns="http://www.w3.org/2000/svg">
<path d="M10.001 30.0129C10.001 28.422 9.48232 27.5807 9.1544 27.304C8.40981 26.9518 7.5311 26.5489 7.28331 26.444C6.29587 26.1296 5.62135 25.5986 4.55254 25.2831C3.5651 24.7579 3.05303 24.1434 2.3542 23.3386C1.65522 22.5335 1.02347 21.7517 0.629563 20.8575C0.259734 20.0179 -0.0213428 19.1323 0.00127464 18.0163C0.0444214 15.8875 0.0156465 14.9887 0.344795 14.1491C0.673943 13.3095 1.14297 12.5277 1.53688 11.6334C1.90671 10.7938 2.67761 9.75445 3.799 9.11879C4.78645 8.55905 5.73089 8.03208 6.75764 7.82637C8.66719 7.44378 11.5353 8.08218 13.5798 7.5465C13.9878 7.43958 14.051 7.22624 14.1518 7.02135C14.5647 6.18175 14.877 3.63185 15.6742 2.95082C16.4533 2.28522 17.0033 1.62272 17.8932 1.06408C18.84 0.469752 20.5036 -0.0166342 21.898 0.000436035C24.8949 0.0371227 25.4944 0.123849 26.4819 0.403716C27.4693 0.683583 28.5234 1.02216 29.4405 1.66259C30.3441 2.29361 31.3581 3.03548 31.8629 3.96966C32.3165 4.80926 32.5476 7.56549 33.6738 7.96892C33.9635 8.07269 34.288 8.0667 34.5774 8.03705C36.2762 7.86305 38.7348 7.98268 39.7957 8.28338L39.8188 8.28993C40.7999 8.56797 41.8675 8.87051 43.0441 9.61353C44.4815 10.5213 45.4704 11.112 46.1642 12.059C46.7793 12.8986 47.4716 13.6788 47.7249 14.6103C48.1748 16.2654 48.0096 18.3471 47.6805 19.1867L46.6943 21.7023C46.3651 22.5419 45.886 23.4997 45.1602 24.2511L45.159 24.2524C44.4174 25.0202 43.8041 25.6551 42.747 26.068C41.7595 26.4538 39.4458 26.3348 38.2827 26.917C37.7132 27.2021 37.452 28.1286 37.5311 28.508L37.534 28.5215C37.6563 29.1081 37.7802 29.7017 37.5311 33.3435C37.3265 36.3361 37.2957 40.1377 36.5018 40.7438C36.0913 41.0572 35.5957 41.2668 35.1038 41.4062C34.1164 41.6861 31.3217 42.0144 27.9242 41.9995C19.5698 41.9628 18.2294 41.9252 16.8577 41.6138C15.6249 41.3339 14.5758 41.2976 13.4479 40.9503C12.4197 40.6337 11.2054 40.4345 10.4904 39.6903C10.1219 39.3067 9.94186 38.8128 10.001 38.2921C10.2057 36.4913 10.001 33.8654 10.001 30.0129Z" fill="#761B00"/>
<path d="M9.92427 30.9935H14.3307C15.5553 30.9935 14.8256 28.039 15.8231 28.039C16.676 28.039 16.9839 29.1523 17.1735 29.709C17.3156 30.049 17.8557 30.6877 18.8791 30.5225C19.9025 30.3573 20.1821 29.6259 20.1584 29.2808C20.2294 28.0248 20.5279 25.3843 21.1533 25.3843C21.7788 25.3843 22.2184 26.8377 22.3615 27.2255C22.5047 27.6133 22.8164 27.8249 23.2144 27.8249C23.6123 27.8249 23.9194 27.4377 23.9961 26.8829C24.1383 25.8553 24.2259 23.8 24.9911 23.8C25.7729 23.8 25.8439 25.2558 25.9861 25.8553L26.981 29.9231C27.0284 30.3227 27.4217 31.122 28.6156 31.122C29.8096 31.122 30.345 29.8089 30.4634 29.1523C30.5345 28.7955 30.9041 28.0819 31.8138 28.0819C32.7235 28.0819 33.093 29.1666 33.1641 29.709C33.3062 30.289 33.8112 30.9935 34.9634 30.9935H37.5699C37.5698 30.9927 37.57 30.9927 37.5699 30.9935C37.5644 31.0295 37.5703 32.7064 37.5703 32.7064H34.9634C33.8112 32.7064 33.3062 33.4109 33.1641 33.991C33.093 34.5334 32.7235 35.6181 31.8138 35.6181C30.9041 35.6181 30.5345 34.9045 30.4634 34.5476C30.345 33.8911 29.8096 32.578 28.6156 32.578C27.4217 32.578 27.0284 33.3773 26.981 33.7769L25.9861 37.8447C25.8439 38.4441 25.7729 39.9 24.9911 39.9C24.2259 39.9 24.1383 37.8447 23.9961 36.817C23.9194 36.2623 23.6123 35.875 23.2144 35.875C22.8164 35.875 22.4418 36.2569 22.3615 36.4745C22.1556 37.0325 21.7788 38.3157 21.1533 38.3157C20.5279 38.3157 20.2294 35.6752 20.1584 34.4192C20.1821 34.0741 19.9025 33.3427 18.8791 33.1774C17.8557 33.0122 17.3156 33.651 17.1735 33.991C16.9839 34.5476 16.676 35.6609 15.8231 35.6609C14.8256 35.6609 15.5553 32.7064 14.3307 32.7064H9.92427V30.9935Z" fill="#FFF3C4"/>
</svg>
