<svg width="592" height="592" viewBox="0 0 592 592" fill="none" xmlns="http://www.w3.org/2000/svg">
<circle cx="296" cy="296" r="292.5" fill="#E2572E" stroke="#FF9D00" stroke-width="7"/>
<circle cx="296" cy="296" r="201" fill="#FF9D00"/>
<ellipse cx="295.999" cy="52.5" rx="10" ry="36.5" fill="#FFF3C4"/>
<ellipse cx="354.796" cy="56.8033" rx="10" ry="36.5" transform="rotate(18.0128 354.796 56.8033)" fill="#FFF3C4"/>
<ellipse cx="404.15" cy="72.1099" rx="10" ry="36.5" transform="rotate(32.7389 404.15 72.1099)" fill="#FFF3C4"/>
<ellipse cx="451.161" cy="102.592" rx="10" ry="36.5" transform="rotate(45.8712 451.161 102.592)" fill="#FFF3C4"/>
<ellipse cx="490.16" cy="140.592" rx="10" ry="36.5" transform="rotate(54.9136 490.16 140.592)" fill="#FFF3C4"/>
<ellipse cx="516.161" cy="188.592" rx="10" ry="36.5" transform="rotate(56.5696 516.161 188.592)" fill="#FFF3C4"/>
<ellipse cx="537.664" cy="243.37" rx="10" ry="36.5" transform="rotate(69.0873 537.664 243.37)" fill="#FFF3C4"/>
<ellipse cx="10" cy="36.5" rx="10" ry="36.5" transform="matrix(0.950987 -0.30923 -0.30923 -0.950987 352.573 572.74)" fill="#FFF3C4"/>
<ellipse cx="10" cy="36.5" rx="10" ry="36.5" transform="matrix(0.841144 -0.540811 -0.540811 -0.841144 411.479 555.74)" fill="#FFF3C4"/>
<ellipse cx="10" cy="36.5" rx="10" ry="36.5" transform="matrix(0.696274 -0.717776 -0.717776 -0.696274 466.397 521.74)" fill="#FFF3C4"/>
<ellipse cx="10" cy="36.5" rx="10" ry="36.5" transform="matrix(0.574811 -0.818286 -0.818286 -0.574811 510.28 480.311)" fill="#FFF3C4"/>
<ellipse cx="10" cy="36.5" rx="10" ry="36.5" transform="matrix(0.550924 -0.834556 -0.834556 -0.550924 537.113 431.602)" fill="#FFF3C4"/>
<ellipse cx="10" cy="36.5" rx="10" ry="36.5" transform="matrix(0.356945 -0.934125 -0.934125 -0.356945 564.19 370.74)" fill="#FFF3C4"/>
<ellipse cx="538.499" cy="296" rx="10" ry="36.5" transform="rotate(90 538.499 296)" fill="#FFF3C4"/>
<ellipse cx="10" cy="36.5" rx="10" ry="36.5" transform="matrix(-0.950987 0.30923 0.30923 0.950987 237.756 21)" fill="#FFF3C4"/>
<ellipse cx="10" cy="36.5" rx="10" ry="36.5" transform="matrix(-0.841144 0.540811 0.540811 0.841144 178.851 38)" fill="#FFF3C4"/>
<ellipse cx="10" cy="36.5" rx="10" ry="36.5" transform="matrix(-0.696274 0.717776 0.717776 0.696274 123.932 72)" fill="#FFF3C4"/>
<ellipse cx="10" cy="36.5" rx="10" ry="36.5" transform="matrix(-0.574811 0.818286 0.818286 0.574811 80.0493 113.428)" fill="#FFF3C4"/>
<ellipse cx="10" cy="36.5" rx="10" ry="36.5" transform="matrix(-0.550924 0.834556 0.834556 0.550924 53.2163 162.137)" fill="#FFF3C4"/>
<ellipse cx="10" cy="36.5" rx="10" ry="36.5" transform="matrix(-0.356945 0.934125 0.934125 0.356945 26.1387 223)" fill="#FFF3C4"/>
<ellipse cx="243.533" cy="536.936" rx="10" ry="36.5" transform="rotate(-161.987 243.533 536.936)" fill="#FFF3C4"/>
<ellipse cx="194.179" cy="521.63" rx="10" ry="36.5" transform="rotate(-147.261 194.179 521.63)" fill="#FFF3C4"/>
<ellipse cx="147.168" cy="491.148" rx="10" ry="36.5" transform="rotate(-134.129 147.168 491.148)" fill="#FFF3C4"/>
<ellipse cx="108.169" cy="453.148" rx="10" ry="36.5" transform="rotate(-125.086 108.169 453.148)" fill="#FFF3C4"/>
<ellipse cx="82.1684" cy="405.148" rx="10" ry="36.5" transform="rotate(-123.43 82.1684 405.148)" fill="#FFF3C4"/>
<ellipse cx="60.6648" cy="350.37" rx="10" ry="36.5" transform="rotate(-110.913 60.6648 350.37)" fill="#FFF3C4"/>
<ellipse cx="10" cy="36.5" rx="10" ry="36.5" transform="matrix(4.37114e-08 1 1 -4.37114e-08 19.3301 288)" fill="#FFF3C4"/>
<ellipse cx="295.999" cy="539.5" rx="10" ry="36.5" fill="#FFF3C4"/>
</svg>
