<svg width="414" height="616" viewBox="0 0 414 616" fill="none" xmlns="http://www.w3.org/2000/svg">
<path d="M413.175 130.56C406.949 78.4628 401.305 -1.05317 393.477 0.588447C379.677 3.48237 370.958 8.93164 367.468 11.7087C360.674 17.8521 350.547 24.8238 336.498 35.2023C322.716 46.861 308.387 54.3184 291.048 61.732C261.259 74.4688 228.55 82.0152 207.487 93.6514C191.711 102.367 174.747 111.311 160.291 119.75C145.834 128.188 132.171 137.527 117.655 148.273C103.609 158.671 90.2886 172.238 76.9182 185.856C63.5478 199.474 49.4187 219.04 38.8166 237.395C25.9462 259.677 21.772 276.714 16.4846 293.075C11.9013 307.257 4.12363 325.625 2.82203 345.048C1.67407 362.178 -0.267804 376.656 1.82745 394.364C4.47651 416.753 11.2264 447.216 13.3841 467.491C15.4921 487.3 21.0281 493.042 15.8916 542.516C13.4614 565.922 15.8916 576.261 13.891 582.99C8.74734 600.29 7.23135 620.876 18 614C22.77 610.954 21.9301 603.995 30.266 589C32.2117 585.5 34.8148 583.029 50.6259 573.007C64.9482 563.928 83.0486 552.727 97.5051 544.289C111.962 535.85 128.591 532.637 145.902 522.807C160.999 514.234 178.32 509.385 192.11 499.896C206.29 490.138 224.232 481.754 238.61 469.368C255.201 455.075 268.926 444.551 283.971 433.413C298.017 423.015 309.133 409.249 320.956 393.548C331.648 379.349 350.633 358.467 359.663 343.879C369.271 328.356 380.042 310.01 384.943 293.247C390.852 273.032 400.166 252.558 402.896 234.708C405.459 217.95 407.282 202.791 409.204 186.166C411.127 169.542 415.317 148.489 413.175 130.56Z" fill="#E2572E"/>
</svg>
