<svg width="68" height="597" viewBox="0 0 68 597" fill="none" xmlns="http://www.w3.org/2000/svg">
<path d="M13.7279 12.2479C16.0626 7.18733 18.0134 4.22941 20.1348 4.06106C22.2562 3.8927 25.5235 4.75472 29.8075 8.18898C33.5863 11.2183 37.9611 14.7738 40.7737 19.6578C43.6617 24.6728 45.834 28.8987 47.2827 33.5689C49.1223 39.4995 51.9578 48.4534 54.286 56.254C56.1596 62.5315 60.0226 72.4565 61.4813 82.9123C62.7609 92.0839 63.611 98.4269 63.1796 122.252C63.0047 131.913 62.9511 142.883 62.608 155.348C62.189 170.576 61.1724 179.431 60.8331 186.634C60.3312 197.288 61.8751 221.038 58.6409 230.949C56.6092 237.175 54.384 245.593 50.698 251.478C48.0568 255.695 43.7725 260.914 38.0553 270.479C34.81 275.909 30.9303 281.107 28.9501 293.851C27.6882 301.972 27.3778 319.071 27.9735 333.52C28.3891 343.6 29.1307 354.9 29.8403 373.102C30.3111 385.179 31.2182 392.464 31.6285 398.204C32.1404 405.365 33.0826 411.052 34.1145 416.311C35.0768 421.217 36.2834 426.25 36.8499 431.073C37.5139 436.726 37.9215 441.786 38.739 449.205C39.3432 454.69 40.0677 459.769 40.7386 464.618C41.5084 470.182 42.3466 475.506 43.1833 480.06C44.1977 485.581 45.073 492.551 46.282 498.86C47.3006 504.175 48.3562 511.876 47.6455 542.151C47.0156 568.984 48.1259 575.338 44.7705 579.043C39.9528 584.363 34.0159 588.889 28.7297 590.158C23.4493 591.425 18.0746 593.522 14.8636 590.447C11.5082 587.234 8.20674 582.433 6.39613 577.637C4.63421 572.969 3.24379 567.997 5.36523 543.238C6.20903 533.39 6.98683 527.345 8.23393 519.323C10.1649 506.902 12.8718 493.262 12.4974 473.489C12.2998 463.054 11.7998 444.697 11.4269 433.215L11.3693 431.444C10.871 416.111 10.3827 401.089 9.975 380.764C9.76418 370.254 9.61962 360.136 9.45174 337.259C9.28386 314.382 9.09829 279.794 9.31605 252.514C9.53381 225.235 10.1195 205.851 10.5125 194.217C11.033 178.814 12.5124 169.601 12.7665 153.434C13.1196 130.979 13.1306 124.148 12.1381 117.062C11.1138 109.747 8.83662 101.132 8.85363 90.1813C8.89899 60.9804 9.36917 54.219 9.73828 46.6312C10.0782 39.644 10.027 33.3536 10.8669 27.5508C11.642 22.1964 11.5998 16.8607 13.7279 12.2479Z" fill="#E2572E" stroke="#E2572E" stroke-width="8" stroke-linecap="round"/>
</svg>
