<svg width="24" height="23" viewBox="0 0 24 23" fill="none" xmlns="http://www.w3.org/2000/svg">
<path d="M5.48458 16.1773C5.48458 15.2717 5.23355 14.7929 5.07485 14.6354C4.7145 14.435 4.28924 14.2056 4.16933 14.146C3.69145 13.967 3.36501 13.6648 2.84776 13.4852C2.36988 13.1863 2.12206 12.8365 1.78386 12.3784C1.44558 11.9202 1.13984 11.4752 0.949212 10.9662C0.770231 10.4884 0.634202 9.98432 0.645148 9.34915C0.666029 8.13745 0.652103 7.62587 0.811396 7.14799C0.970689 6.67011 1.19768 6.22513 1.38831 5.71614C1.56729 5.23827 1.94037 4.6467 2.48308 4.28489C2.96096 3.96631 3.41803 3.66637 3.91492 3.54928C4.83906 3.33152 6.22711 3.69489 7.21652 3.38999C7.414 3.32914 7.44457 3.20771 7.49335 3.09109C7.69321 2.61321 7.84436 2.06716 8.23015 1.67953C8.6072 1.30069 8.87335 0.923613 9.30403 0.605647C9.76223 0.267373 10.5674 -0.00946497 11.2422 0.00025095C12.6925 0.021132 12.9827 0.0704941 13.4606 0.229787C13.9384 0.38908 14.4486 0.58179 14.8924 0.946307C15.3297 1.30546 15.8205 1.72772 16.0647 2.25943C16.2843 2.73731 16.3961 3.4008 16.9411 3.63042C17.0813 3.68949 17.2384 3.68607 17.3785 3.6692C18.2006 3.57016 19.3904 3.63825 19.9039 3.8094L19.9151 3.81313C20.3899 3.97139 20.9065 4.14359 21.4759 4.56649C22.1716 5.08315 22.6501 5.41936 22.9859 5.95836C23.2836 6.43624 23.6187 6.88032 23.7412 7.4105C23.959 8.35253 23.879 9.53738 23.7197 10.0153L23.2425 11.4471C23.0832 11.925 22.8513 12.4701 22.5 12.8978L22.4994 12.8985C22.1406 13.3355 21.8438 13.6969 21.3321 13.932C20.8543 14.1515 19.7345 14.0838 19.1716 14.4152C18.896 14.5774 18.7696 15.1048 18.8079 15.3207L18.8093 15.3284C18.8685 15.6623 18.9284 16.0001 18.8079 18.073C18.7089 19.7763 18.694 21.94 18.3097 22.285C18.1111 22.4634 17.8712 22.5827 17.6332 22.662C17.1553 22.8213 15.8028 23.0082 14.1586 22.9997C10.1154 22.9788 9.46673 22.9574 8.80289 22.7802C8.20629 22.6209 7.69858 22.6002 7.15269 22.4025C6.65512 22.2223 6.06743 22.1089 5.72144 21.6854C5.54305 21.467 5.45594 21.186 5.48458 20.8895C5.58362 19.8646 5.48458 18.37 5.48458 16.1773Z" fill="#761B00"/>
<path d="M6.11492 18.9511C5.87993 18.8663 5.67533 18.9793 5.61628 18.8059C5.5647 18.6545 5.5776 18.6185 5.57762 18.4057C5.57764 18.2482 5.56525 18.115 5.63161 17.9693C5.68297 17.8968 5.75383 17.8381 5.84499 17.8242C6.08153 17.788 6.15959 17.8935 6.56699 17.9256C6.77807 17.9422 7.16656 17.9704 7.35268 18.0216C7.52926 18.0702 7.69551 18.0331 7.89555 18.0853C8.19689 18.1641 8.35083 18.1174 8.60397 18.1896C8.7951 18.2442 9.17913 18.28 9.44198 18.2912C9.87471 18.3095 10.0796 18.3366 10.3156 18.3639C10.581 18.3946 10.9024 18.4648 11.618 18.473C12.1417 18.479 13.1023 18.4888 13.6196 18.4728C14.2099 18.4546 14.5988 18.4672 15.0932 18.4365C15.5789 18.4063 15.957 18.4107 16.4027 18.3639C16.6902 18.3337 17.0065 18.3232 17.2175 18.2912C17.4066 18.2625 17.7232 18.2352 17.9413 18.2165L17.9741 18.2136C18.1873 18.1953 18.6228 18.0873 18.7556 18.3399C18.8945 18.6041 18.9552 19.1384 18.7911 19.1945C18.6141 19.2551 18.4048 19.2558 17.7171 19.3216C17.5273 19.3398 16.749 19.3404 15.6498 19.358C15.2634 19.3642 15.2053 19.38 14.8538 19.3822C13.8768 19.3882 13.1619 19.3608 12.783 19.3578C12.0119 19.3518 11.4426 19.3283 11.1984 19.3215C10.5459 19.3031 10.3138 19.2649 10.1128 19.2487C9.8846 19.2304 9.62241 19.1887 9.24377 19.1698C8.51697 19.1336 8.16209 19.1358 7.81266 19.0911C7.57701 19.0609 7.33886 19.061 7.07021 19.0183C6.72434 18.9634 6.40085 19.0542 6.11492 18.9511Z" fill="#FFF3C4"/>
<path d="M12.0528 17.8904C12.0528 18.2377 12.0069 18.4636 12.0528 18.5072C12.2017 18.6482 12.5215 18.557 12.651 18.5507C12.7804 18.5444 12.8415 18.5322 12.8847 18.5072C12.9524 18.4454 12.9516 17.6889 12.9459 16.9884C12.9398 16.2285 12.9163 15.7029 12.9088 15.6209L12.9088 15.6205C12.8901 15.4161 12.866 15.1527 12.7043 15.0836C12.6179 15.0467 12.4444 15.0836 12.2976 15.0836C12.182 15.0836 12.0411 15.0892 12.0284 15.1739C11.9854 15.4611 12.0019 16.0689 12.0283 16.471C12.0591 16.9387 12.0528 17.6212 12.0528 17.8904Z" fill="#FFF3C4"/>
<path d="M9.40926 17.8904C9.40924 18.2377 9.3633 18.4636 9.40929 18.5072C9.55819 18.6482 9.87799 18.557 10.0074 18.5507C10.1368 18.5444 10.198 18.5322 10.2412 18.5072C10.3089 18.4454 10.308 17.6889 10.3024 16.9884C10.2962 16.2285 10.2728 15.7029 10.2653 15.6209L10.2652 15.6205C10.2465 15.4161 10.2224 15.1527 10.0608 15.0836C9.9744 15.0467 9.80088 15.0836 9.65404 15.0836C9.53848 15.0836 9.3975 15.0892 9.38482 15.1739C9.34181 15.4611 9.35834 16.0689 9.38479 16.471C9.41557 16.9387 9.40928 17.6212 9.40926 17.8904Z" fill="#FFF3C4"/>
<path d="M14.6954 17.8904C14.6954 18.2377 14.6494 18.4636 14.6954 18.5072C14.8443 18.6482 15.1641 18.557 15.2935 18.5507C15.4229 18.5444 15.4841 18.5322 15.5273 18.5072C15.595 18.4454 15.5941 17.6889 15.5885 16.9884C15.5824 16.2285 15.5589 15.7029 15.5514 15.6209L15.5514 15.6205C15.5327 15.4161 15.5085 15.1527 15.3469 15.0836C15.2605 15.0467 15.087 15.0836 14.9402 15.0836C14.8246 15.0836 14.6836 15.0892 14.671 15.1739C14.6279 15.4611 14.6445 16.0689 14.6709 16.471C14.7017 16.9387 14.6954 17.6212 14.6954 17.8904Z" fill="#FFF3C4"/>
</svg>
