<svg width="417" height="641" viewBox="0 0 417 641" fill="none" xmlns="http://www.w3.org/2000/svg">
<path d="M340.381 26.157C342.053 16.2619 343.471 11.5884 345.355 9.63847L345.468 9.30142C346.427 6.43943 346.483 6.27055 347.855 3.58063C349.968 1.56152 352.629 -0.252607 355.458 0.33541C357.006 0.657236 361.262 1.04486 363.963 2.16848C369.592 4.51088 369.603 15.0267 370.101 18.1027C371.192 24.8358 371.483 32.2205 369.648 39.3383C366.696 50.7868 362.704 59.6453 363.137 68.5357C363.511 76.219 358.223 89.887 360.711 101.174C363.815 115.255 371.244 134.244 375.489 139.559C380.286 145.564 386.169 152.591 392.524 160.39C396.891 165.748 404.554 171.842 408.053 180.168C410.795 186.693 420.493 198.444 414.819 205.214C412.99 207.396 409.088 211.885 402.943 213.265C397.455 214.498 391.056 216.856 385.001 213.251C375.771 207.757 371.707 200.974 361.215 197.898C353.058 195.508 342.769 194.452 336.392 198.353C331.398 201.407 326.184 204.475 322.286 210.672C317.872 217.691 312.286 224.252 310.995 236.032C310.228 243.022 308.292 249.118 308.262 255.424C308.228 262.462 316.26 294.316 323.098 316.392C328.968 335.342 333.532 347.675 337.663 359.407C340.851 368.465 346.736 381.376 349.55 392.543C352.915 405.899 354.453 412.468 353.962 418.692C353.413 425.651 353.224 434.588 348.391 442.015C343.428 449.64 338.513 452.905 333.579 456.183C328.645 459.461 324.098 464.606 313.842 465.639C306.759 466.351 298.692 468.724 294.863 463.492C290.269 457.214 288.464 450.898 281.218 430.091C275.779 414.476 271.099 393.082 265.856 390.439C263.053 389.025 258.895 387.165 256.074 389.237C253.455 391.161 250.32 393.259 249.304 396.414C247.335 402.53 246.751 408.416 246.722 414.566C246.689 421.604 245.435 427.587 246.613 434.708C247.764 441.664 247.819 448.47 247.456 454.824L247.424 455.382C247.093 461.164 246.716 467.753 246.935 474.358C247.206 482.52 245.023 491.583 244.986 499.352C244.953 506.39 244.108 512.607 242.693 518.625C241.231 524.843 240.947 533.42 238.352 540.153C235.633 547.206 233.086 557.166 228.524 562.921C224.364 568.17 211.266 576.13 201.464 574.834C195.426 574.036 187.664 574.508 184.001 569.376C179.337 562.841 177.152 551.532 171.085 550.358C169.535 550.059 167.748 550.543 166.811 551.538C165.874 552.534 165.891 554.003 165.619 556.986C164.4 570.378 162.438 576.199 158.691 585.975C155.996 593.007 155.044 601.134 145.637 612.045C140.477 618.03 129.963 623.681 119.136 623.312C112.778 623.095 106.888 622.759 100.977 622.421L100.97 622.42C95.0564 622.082 88.8892 619.944 82.6228 621.825L81.9406 622.029C73.5952 624.533 68.1289 626.172 63.6749 629.635C58.8659 633.373 54.4199 638.01 47.6987 639.532C41.9872 640.825 35.8645 641.662 30.1195 639.92C23.7763 637.998 15.1966 637.588 12.148 631.7C5.57411 619.002 -0.206232 596.306 0.628095 589.996C1.42661 583.958 2.22765 575.557 5.85962 569.927C11.0139 561.938 17.0679 550.996 20.8119 545.523C25.5183 538.644 33.4373 531.841 33.7949 525.52C34.0032 521.836 33.1309 518.671 31.4981 516.213C28.2203 511.279 21.9372 507.53 20.3658 501.044C18.2191 492.184 18.0554 485.332 22.0073 479.288C26.8067 471.947 31.3382 466.201 37.3367 462.552C42.3348 459.511 46.9411 456.097 52.4262 453.861C63.0102 449.546 80.7833 449.848 98.4375 441.152C106.113 437.371 119.316 433.226 114.948 432.556C110.375 431.855 103.825 432.769 97.5825 432.901C91.7936 433.024 86.2687 434.978 78.2753 434.986C71.9752 434.993 64.7137 436.58 59.6623 431.534C54.6888 426.565 48.5199 415.773 50.3747 407.884C51.8368 401.665 52.4387 394.724 57.3257 391.477C59.7834 389.845 66.5693 388.935 74.0701 385.246C81.773 381.458 90.0724 376.777 96.778 375.218C103.39 373.68 110.206 374.124 118.883 371.655C137.731 366.293 151.938 361.405 161.782 357.601C168.145 355.143 174.358 352.16 179.516 347.94C185.269 343.234 192.799 338.899 192.951 331.427C193.001 328.956 192.032 325.381 191.13 322.965C190.228 320.549 189.418 319.33 186.25 319.469C183.082 319.607 177.782 321.553 174.285 321.744C166.421 322.175 160.488 322.276 154.615 321.5C148.577 320.701 141.365 320.555 136.268 317.256C133.632 315.549 125.38 302.353 128.088 292.331C128.934 289.202 130.596 286.324 132.81 283.791C135.023 281.257 145.045 276.084 159.491 273.914C169.479 272.414 175.907 270.912 186.152 269.596C194.616 268.509 204.242 268.248 213.847 264.504C224.004 260.545 238.469 256.254 243.494 252.348C248.303 248.61 253.781 244.239 257.783 237.057C264.614 224.797 266.748 217.833 269.688 211.305C273.913 201.925 275.157 195.788 277.303 189.384C279.449 182.98 283.915 175.746 279.631 167.667C278.62 165.76 277.295 164.227 273.051 165.111C261.588 167.497 250.966 171.011 245.431 168.467C242.118 166.944 238.345 165.339 237.046 162.497C235.867 159.916 234.819 156.862 235.988 154.061C238.496 148.054 242.05 141.997 247.43 138.132C252.303 134.63 257.218 131.365 262.152 128.087L262.152 128.087L276.935 118.266C281.869 114.988 287.306 112.351 291.656 108.214C296.285 103.813 301.483 100.809 305.765 95.9083C310.209 90.8225 315.674 87.559 319.754 83.1552C324.258 78.2929 325.423 70.6184 327.957 64.1129C330.387 57.8721 332.748 52.7178 334.816 45.8513C336.725 39.5118 339.193 33.1893 340.381 26.157Z" fill="#E2572E"/>
</svg>
