<svg width="44" height="50" viewBox="0 0 44 50" fill="none" xmlns="http://www.w3.org/2000/svg">
<path d="M31.8307 1.18948C31.9866 0.639388 32.1425 0.325052 32.2984 0.246469C32.4542 0.167884 33.1947 0.0892994 34.5197 0.0107163C35.9226 -0.0678691 36.8579 0.285759 37.3255 1.0716C37.949 0.600096 39.313 1.18948 41.4174 2.83974C43.5217 4.49001 44.3401 5.66877 43.8725 6.37602C43.171 6.37602 41.3394 7.31903 38.3777 9.20505C35.416 11.0911 32.9609 12.7413 31.0124 14.1558C30.233 14.5488 24.8551 17.6921 14.8788 23.5859C13.3979 24.2146 13.242 24.7647 14.4111 25.2362C14.6449 25.3934 16.0479 26.4935 18.6199 28.5367C21.1919 30.5013 22.4779 31.5229 22.4779 31.6015C26.297 33.8804 28.4014 35.2557 28.7911 35.7272C29.1808 36.1987 29.7653 36.7095 30.5447 37.2596C31.3241 37.7311 31.7918 38.0847 31.9476 38.3204C37.0137 42.7997 39.5858 45.6681 39.6637 46.9254C39.5858 47.3183 38.7674 47.8684 37.2086 48.5757C35.7277 49.2829 34.091 49.7544 32.2984 49.9902C29.8043 50.0688 27.8948 49.6758 26.5698 48.8114C25.7904 48.7328 25.011 48.3792 24.2316 47.7505C23.4522 47.0433 22.9845 46.4146 22.8286 45.8645C21.4257 45.8645 20.2956 45.0787 19.4383 43.507C18.8147 43.1927 17.9964 42.4068 16.9831 41.1495C16.7493 41.0709 16.3596 40.7958 15.814 40.3243C15.2685 39.7742 14.8008 39.4206 14.4111 39.2635C13.7097 37.8489 12.6964 36.8666 11.3715 36.3165L9.85162 34.3127C8.4487 33.4482 7.74724 32.8196 7.74724 32.4266C7.2796 31.3265 6.14947 30.462 4.35685 29.8334C3.96715 28.9689 2.91496 28.1045 1.20028 27.2401C0.654696 27.1615 0.303966 26.965 0.148086 26.6507C0.070146 26.3364 0.0311759 25.3934 0.0311759 23.8217C-0.124704 23.5073 0.303966 22.3679 1.31719 20.4033C3.10981 19.1459 4.98037 17.9672 6.92887 16.867C8.72149 15.4525 10.9818 13.7236 13.7097 11.6804C16.4376 9.63726 17.8015 8.49779 17.8015 8.26204C18.1912 8.10487 19.1265 7.59408 20.6074 6.72965C22.1662 5.86523 23.1404 5.23656 23.5301 4.84363C25.3227 4.68647 26.3749 4.09709 26.6867 3.07549C28.0896 2.21107 29.2587 1.70027 30.194 1.5431C31.2072 1.38593 31.7528 1.26806 31.8307 1.18948Z" fill="#761B00"/>
</svg>
