<svg width="90" height="629" viewBox="0 0 90 629" fill="none" xmlns="http://www.w3.org/2000/svg">
<path d="M9.29889 46.4885C8.12054 39.0653 7.50987 24.9278 11.6284 12C18 -7.99999 28.5 49.077 28.5 73.9317C28.5 105 40 92.5683 40 76C40 73.1456 34.5 7.00001 44 7.00001C51.6 7.00001 53 56.6894 52.5 79C52.4552 81 59.3554 107.2 64.5 88C69.6446 68.8 65.8103 28.3333 64.5 16.5C65.2616 5.66666 70.67 -1.5 74.2873 12C80.2894 34.4 77.3373 54.3333 77.8414 57.5C78.3985 61 77.3875 66.1182 77.8414 71.0773C78.4613 77.8513 78.9116 85.0309 79.5 90.5C80.1628 96.6609 79.207 106.472 80.2776 114.753C81.088 121.021 81.8711 126.146 83.077 131.045C84.693 137.61 86.1238 154.241 84.7255 165.319C84.0358 170.784 83.1526 176.849 80.5532 183.42C78.4131 188.83 75.4672 194.874 73.5 200.332C71.3018 206.431 66.5095 216.999 63 221.031C59.1331 225.474 56.9819 230.034 54.4387 235.555C52.3952 239.992 50.2783 242.744 49.5969 248.494C49.0172 253.385 49.4805 259.9 48.77 265.5C48.1481 270.401 48.3735 269 48.3735 278.5C48.3735 286.762 47.391 292.922 48.3735 298.611C49.187 303.321 49.0193 323.171 48.77 351.663C48.664 363.774 48.616 383.573 48.4651 394.412C48.2888 407.078 48.0814 411.482 47.468 422.235C46.8724 432.674 46.1335 446.01 45.7447 453.035C45.4021 459.226 44.7228 465.94 44.8205 476.32C45.0744 503.28 45.8992 510.84 46.8387 518.236C47.8289 526.032 50.2343 535.241 50.6008 542.693C51.6896 564.831 51.8047 586.702 50.742 594.088C49.9838 599.357 51.249 606.539 45.9499 612.373C41.0168 617.805 36.9851 623.704 30.2491 624.447C26.2262 624.89 22.6334 625.08 20.3315 624.091C15.7668 622.131 10.6411 620.644 7.33515 617.002C5.68555 615.185 3.86563 613.135 4.00783 608.986C4.50622 594.443 5.22463 588.525 5.67812 583.388C6.19145 577.574 6.82601 572.253 7.36084 566.947C7.89228 561.674 8.61824 555.662 9.38128 548.703C10.5377 538.157 12.777 532.841 19.8105 503.729C23.2883 489.335 25.2883 477.143 25.7682 467.587C26.0412 462.151 26.2398 446.055 26.9782 426.416C27.2822 418.332 28.4898 408.648 27.2003 394.972C25.9777 382.006 24.4299 369.893 24.3739 354.577C24.2887 331.236 24.473 315.071 24.757 312.457C25.378 306.743 25.7149 301.502 28.6902 290.515C30.3505 284.385 31.9238 279.352 32.9516 273.752C33.9503 268.309 35.4866 256.524 33.1874 248.494C31.5772 242.869 28.881 237.498 25.7391 233.762L25.5736 233.565C22.3559 229.739 19.1599 225.939 17.4371 221.031C15.037 214.194 11.8358 207.05 10.5701 200.332C9.58648 195.111 7.50147 190.104 8.63917 169.709C9.15511 160.46 10.9143 151.884 11.6284 144.855C12.3383 137.867 13.7245 129.723 13.4966 111.082C13.2905 94.2198 13.0614 81.1602 12.6437 73.9317C11.8304 59.8602 10.5604 54.4353 9.29889 46.4885Z" fill="#E2572E" stroke="#E2572E" stroke-width="8" stroke-linecap="round"/>
</svg>
