<svg width="712" height="811" viewBox="0 0 712 811" fill="none" xmlns="http://www.w3.org/2000/svg">
<path d="M418.328 64.3333C406.544 45.4905 400.189 -0.624763 392.625 4.21256C372.823 16.8757 361.403 10.2813 354.37 7.88187C347.337 5.4824 341.772 -0.0699061 339.42 0.0006665C335.515 4.72903 340.006 38.7517 322.491 38.6991C314.658 38.6755 303.144 16.9311 288.633 12.0939C286.401 11.3496 281.926 21.0776 281.378 29.0243C279.002 63.4872 281.517 87.6454 269.286 104.002C255.197 122.845 245.874 139.809 227.892 151.858C211.426 162.891 194.419 176.7 176.92 191.073C159.678 205.235 140.78 216.317 125.971 230.288C111.035 244.379 85.3956 262.578 64.0147 281.265C45.1737 297.732 29.6971 331.346 25.0275 338.61C-18.506 406.332 6.65257 518.095 12.9329 536.938C19.2133 555.781 24.4088 583.45 37.1169 599.823C50.5009 617.066 69.7271 627.673 85.4849 643.358C100.421 658.225 116.661 669.449 133.853 684.475C152.694 700.942 171.928 710.766 191.895 715.917C216.24 722.198 239.533 728.064 262.028 735.266C281.645 741.547 332.937 743.939 332.162 752.197C330.539 769.487 295.194 791.759 317.651 802.988C322.488 805.407 342.009 806.19 346.672 805.407C356.057 803.831 356.346 790.895 373.274 786.058C382.331 783.47 396.233 816.342 414.387 810.244C423.772 807.092 458.475 810.785 489.358 805.407C494.085 804.583 512.589 806.73 511.123 802.988C504.043 784.922 481.809 767.933 482.358 749.622C482.429 747.27 487.07 745.477 496.613 744.941C538.882 742.565 536.423 730.611 554.654 720.755C573.495 710.569 581.203 702.193 595.767 686.894C610.704 671.203 624.319 657.364 636.88 638.521C649.441 619.678 664.482 602.172 673.156 578.055C680.213 558.436 686.223 543.688 692.503 524.845C698.783 506.002 719.106 442.611 709.432 396.657C705.189 376.499 707.636 360.782 696.663 341.919C685.701 323.076 671.407 308.737 659.028 290.166C646.467 271.323 635.946 250.947 619.793 232.908C599.423 210.16 583.619 195.041 564.328 183.817C545.487 172.855 530.739 159.259 513.168 148.268C494.327 136.482 473.503 126.604 456.716 111.405C441.074 97.2437 428.969 81.347 418.328 64.3333Z" fill="#E2572E"/>
</svg>
