<?xml version="1.0" encoding="UTF-8"?>
<svg id="Calque_1" xmlns="http://www.w3.org/2000/svg" version="1.1" viewBox="0 0 655.4 202.9">
  <!-- Generator: Adobe Illustrator 29.3.1, SVG Export Plug-In . SVG Version: 2.1.0 Build 151)  -->
  <defs>
    <style>
      .st0 {
        fill: #fff3c4;
      }

      .st1 {
        fill: #761b00;
      }
    </style>
  </defs>
  <g>
    <path class="st0" d="M293.1,132.8l.5,14.4c1.7,6.1,4.2,10.4,7.5,12.8.5.5,1.8,1.1,3.7,1.8l4,1c.5,0,1.1-.2,1.8-.6.7-.2,1.3-.5,1.6-.8.7-1,1.5-1.8,2.2-2.6.7-.7,1.1-1.1,1-1.1.4-.4.6-1.1.5-2.1.3-.3.7-1,1.3-2.1,1.2-6,2.4-9.8,3.5-11.5.4-4.7.6-7.7.6-9,0-4.5-1.2-10-3.5-16.5-1.3-1.5-1.9-6.2-1.9-14.3-.6-1.6-1-3-1.1-4.3-.1-1.4-.5-2.8-1.1-4.3-.5-1.6-1-2.7-1.3-3.2s-.5-1-.6-1.4c0-.5-.2-1.2-.6-1.9-1.7-2.6-4.3-1.2-7.9,4.2l-2.7,4.8c0,.2-.5,2.2-1.6,5.9-1.7,6-2.6,9.3-2.6,10.1.1.6-.5,2.8-1.8,6.6-.1.3-.2,1.1-.2,2.2.1,1.2-.1,2.8-.6,5-.4,2-.6,4.4-.6,7.1v-.2ZM274.8,121.1l1.1-11.9c0-.6.2-1.6.6-2.9.5-1.3.9-2.1,1-2.4,0-.2.1-.6.3-1.1,0-2.9.8-5.4,2.4-7.5,2.5-5.7,4.3-9.9,5.6-12.7,1.3-2.8,2.7-5.1,4.2-6.9.1-.5,1.2-1.4,3.4-2.6,4.4-2.4,8.5-3.5,12.4-3.5s7.5.6,11.1,1.8c1.2.2,2.7,1,4.7,2.4s3.2,2.1,3.5,2.2c1.8,1.1,3.7,3.4,5.6,6.9,2,3.4,3.1,5.9,3.2,7.5.2,1.6.9,4.2,1.9,7.7,1.2,3.4,1.8,6,1.8,7.7s.3,4.1.8,7.4c.6,3.3.9,6,.8,8-.6,15.1-2.6,26-5.8,32.7-.6,4.7-1.9,7.7-3.7,9l-.3,2.2c-.1,1.3-.7,2.7-1.9,4.3-1.1,1.6-2.5,2.8-4.2,3.7-.3.3-2.5.8-6.4,1.4-5.7,1.1-9.4,1.6-11.2,1.6-2.4.7-5.3.6-9-.5-3.5-1-5.6-1.5-6.1-1.6-.5,0-1.7-.6-3.5-1.8-1.7-1.1-2.8-1.9-3.4-2.6-1.7-1.3-2.7-2.3-3-3l-2.2-4.5c-1.4-1.4-2.4-3.4-2.9-5.9-.5-2.7-1.1-4.4-1.6-5.1-.5-1.2-1-2.4-1.4-3.7.1-.7.2-2.1.2-4v-1.6c-.4-1.6-.3-3.2.3-4.6.1-.7.2-1.7.2-2.7.1-1.2.3-2.8.5-5v-2.1c1-3.2,1.4-5.3,1.3-6.4h-.3Z"/>
    <path class="st0" d="M345.8,116.7l-.5-2.1v-1.3c.1-.9,0-1.9-.2-3,0-2.7,0-4.6-.2-5.9-.3-.4-.5-2.5-.5-6.2-.3-3.7-.3-7.3.2-10.7,0-1.1.6-3.9,1.8-8.5,1.2-2.4,1.8-3.7,1.8-4,.5-1.1,1.6-2.4,3.2-3.8l3.2-1.6c1.6-.6,4.4-.5,8.3.5l3.5.8c0,1.8-.2,4.1-.6,6.9-.1,3-.5,7.2-1.3,12.7-1.5,10.9-2.2,22.7-2.2,35.4l.6,2.6c3.1-2.4,5.9-4.8,8.3-7.2,2.6-2.5,4.2-3.9,5-4.3.1-.1,1.3-1.1,3.7-3,2.8-2.2,4.3-3.6,4.7-4.2,2-2.7,4.5-4.7,7.4-6.1,1.9,0,3.6.5,5.1,1.4,1.7,1.5,2.6,2.8,2.6,3.8s-.2,1.9-.5,2.6c-.2.5-.6,1.2-1.3,2.1-.6.9-1.2,1.8-1.8,2.9-1.4,2.5-4.3,5.9-8.7,10.3-3,3.2-5.3,5.5-6.9,6.9-1,1.1-3.3,2.8-7.1,5.3.1.2.3.6.6,1.3.4.5.9,1.2,1.3,2.1,4.5,4.9,8.3,8.2,11.5,9.9,1.3,1.3,2.6,2.1,4,2.4,0,.1.6.5,1.8,1.3l1,.3c2.4,1.2,3.9,1.8,4.7,1.8,3.4.6,5.1,1.8,5.1,3.5s-.9,2.8-2.6,3.7c0,.2-1.6,1.3-4.8,3.2-.4-.1-1.3.2-2.7,1-4,1.3-8.5.7-13.6-1.6-2.9-1.3-5.3-3.3-7.2-6.1l-3.7-2.9c-.1-.3-1.9-2.4-5.5-6.1l.6,5,.8,4.8c0,3.4.2,6.1.6,8.2.4,2,0,3.5-1.3,4.3-1.2.9-3.4,1.3-6.6,1.4-3.1.1-5.5-.6-7.1-2.2-.4-.3-.9-1.7-1.3-4-.3-2.5-.6-4.2-1-5.1-2.1-6.5-3-12.1-2.6-16.8l-.2-4.8c.1-.4.2-1.7.2-3.7,1.1-5.9,1.1-13.5,0-22.8l.4-.4Z"/>
    <path class="st0" d="M450.6,102.6c3.6-3,9.2-3.4,16.8-1.3,1.8.9,3.5,2.1,5,3.8.7,1.2,1.3,3,1.8,5.6.4,2.6.5,5.2.2,8-.2,2.8-1,5.2-2.2,7.2-1.2,1.9-3.3,3.2-6.4,3.8-2.2,0-3.6-.7-4.2-2.1-1-2-1.2-3.8-.6-5.3.3-2.2,0-4.9-1-8-.2-.2-.7-.3-1.6-.3l-1.9,3.5c-.2.4-1.1,3.6-2.7,9.6-1.5,5.9-2.3,9.6-2.4,11.2-.1,1.5-.3,2.9-.5,4.2,0,7.4.5,12.6,1.6,15.5s2.1,4.6,3.2,5.3c.3.3,1.2.5,2.7.5s3.3-.4,5.1-1.3c1.6-1.2,3.1-2.7,4.5-4.6,0-.4.9-1.1,2.7-1.9l1.3-1.3c4-.4,6,1.3,6.3,5.1.2,1.1-.1,2.2-1,3.5-.5,1.3-.9,2-1.1,2.1,0,.4-1.4,2.9-4.3,7.4-1.1,0-1.8.2-2.2.6-2,1.6-4.5,2.2-7.4,1.8-.3-.1-.6-.2-1-.2s-2-.3-5-.8h-2.2c-2.8-.6-4.7-1.3-5.6-2.1-1.3-.3-2.8-1-4.5-2.1l-2.2-2.2c-.3-.1-1-.6-2.1-1.4-1-1-1.5-1.7-1.8-2.1-.1-.5-.5-1.3-1.1-2.2-.5-1.1-.8-2-.8-2.9l-.8-3.2c0-1.3-.2-2.1-.5-2.4,0-.2-.2-.8-.5-1.8,0-1.2-.1-2.8-.3-4.8-.3-3.3,0-5.4.8-6.2.1,0,0-1-.3-2.9v-5.8c0-1.7.5-4,1.4-6.9.1-1.4.7-3.3,1.9-5.6l.8-2.1c.2-1.7,1.1-3.5,2.7-5.3l2.4-2.9,1.9-3.2c1.3-1.7,3-2.9,5.1-3.7v.2Z"/>
    <path class="st0" d="M534.9,162.4l-.2,4.8c0,1.8,0,3.2.3,4.2.3.9.5,1.7.5,2.4,0,1.7-3,1.4-9-.8-.2.1-.7,0-1.6-.2-.9-.1-1.4-.3-1.8-.5-.2-.2-.5-.4-1-.6-1.6-.4-2.4-1.3-2.2-2.7,0-.5-.3-1.1-.6-1.8-.2-.6-.3-1.5-.3-2.7,0-1.2,0-2.9-.2-5.1-.2-2.4-.3-3.7-.2-4,.9-5,1.5-8.4,1.9-10.3,1.1-5.6,1.2-10.9.3-16-.7-5.1-2.7-7.8-5.9-8-2.6,0-4.9,1.7-6.9,5-3.3,6.5-5,17.9-5,34.1s.3,5.2,1,7.7c.6,2.5.9,4.5.6,6.1-.1,1.7-1.6,2.4-4.5,2.1-2.8-.2-4.6-.6-5.5-1.3l-1.9-1c-1.3,0-2.1-.6-2.4-1.8-.2-.4-.7-1.1-1.4-1.9l-2.9-3.7c-.7-.9-1.1-1.6-1-2.2v-2.9l-.2-1.1c-.7-.7-1.1-2.2-1-4.3.2-2.1.7-6.2,1.6-12.2,1.2-8.3,1.8-14.7,1.8-19.1-.1-4.1-.1-6.1,0-6.1l1.4-14.6v-5.9c0-6.8.8-13.6,2.4-20.2.5-1.2.9-1.9,1.1-2.2.3-.4.5-.9.6-1.4.1-1.7.7-3.1,1.8-4.2l-.3.2c.2-.7.8-1.4,1.8-2.1,1.8-1,4.7-.7,8.5.6.7.5,1.3.9,1.6,1,.6.3,1.3.5,1.9.5,1.9,1.3,2.8,2.5,2.6,3.5,0,.2-.4,1.9-1.3,5.1-.4,2.4-.6,3.7-.6,4.2-2.4,8.9-4,18.7-4.8,29.5,1.4-1.4,3-2.5,4.8-3.4,4.2-1.6,7.5-2.4,9.9-2.2,7.7.5,13,3.6,15.9,9.3,2.8,4.6,3.8,11.2,3,19.7,0,1.9-1.1,10.8-2.9,26.6h.3Z"/>
    <path class="st0" d="M576.6,117.9c.4-1.6.4-3.6-.2-6.1-.7-.6-1.8-1-3-1s-3,1.5-4.3,4.5c-1.7,2.6-3,5.4-3.9,8.5h-.2c-1.2,4.5-1.8,6.9-1.8,7.2,1.7.4,3.1.6,4.2.6,1.1-.1,2.3-.7,3.7-1.8,2.5-2.4,4.3-6.4,5.5-12h0ZM576.1,141l-5.9.5c-3.3,0-5.9-.3-7.9-1l.5,3c.3,8.9,2.8,14.7,7.4,17.5,1.3.5,2.4.8,3.2.8s2-.4,3.4-1.3c.4-.4.8-1,1.1-1.8,0-1,.6-1.4,1.6-1.3,4.4-5.6,7.7-7.7,9.9-6.6,2.2,1.5,3.4,2.7,3.4,3.5s-.3.9-.8,1.4v1c0,1.1-.7,3-2.1,5.8-1.3,2.8-2.7,5.1-4.2,7.1-.7,1.6-1.7,2.7-2.9,3.4-3.4,2.1-7.1,3-10.9,2.6-.9-.1-1.4-.3-1.8-.6-.9-.2-1.5-.3-1.9-.2l-1.3-.2c-1,0-1.8-.2-2.4-.6-1.1-.6-1.8-1-2.2-1-2.8-1.1-4.5-1.9-5.1-2.4-.5-.5-1-.9-1.4-1.1-.4-.2-1.4-1.3-3-3.4-1.4-1.2-2.2-1.9-2.4-2.2-.6-1-1.2-1.7-1.8-2.1-.4-.4-.7-1.4-.8-2.9-.4-.5-.6-1.2-.6-2.1l-.6-1.3c0-.7-.3-1.3-1-1.8-.6-.6-1-1.4-1-2.4v-1.3c-.4-.2-.5-.9-.3-1.9v-4.2l-.2-1.4v-1.1c0-.4,0-1.3.3-2.7l-.2-1.4c0-.1.3-1,.5-2.6.4-2.2.9-3.6,1.4-4.2v-1.4c0-.3.2-.7.2-1.3s0-1.1.3-1.8c.3-.6,1.2-3,2.6-7.2l2.6-5.6c.7-1.6,1.9-3.4,3.5-5.3,0-.5.5-1.5,1.3-2.9l2.1-1.9c.6-1,1.6-1.7,2.9-2.1,1.5-.7,2.6-1.1,3.4-1.1l4.5-.6c.5.1.9.2,1.1.2h2.1c2.4.2,4.3.7,5.8,1.4,3.2,1,5.6,2.2,7.1,3.7,3.3,3.7,5,7.3,5,10.7s-.5,6.4-1.6,8.8c-2.7,6.1-4.6,9.9-5.8,11.5-1.9,3.5-4.2,5.3-6.9,5.3h-.2Z"/>
    <path class="st0" d="M601.6,110.6l-1.6-.2h-1.9c-3,0-4.8-.4-5.3-1.1-1.2-2-1.3-4.1-.3-6.1.6-1.6,1.7-2.5,3.2-2.7,1.5-.3,2.8-.6,3.8-1,.5,0,1.8-.2,3.9-.5,2.1-.3,3.4-.6,3.7-1v-1.3c0-.6.5-2.2,1.4-4.8,0-.5.2-1.3.6-2.4.3-1.1.7-2.6,1.1-4.5l2.2-7.7c0-.4.4-1.2,1.1-2.4-.2-.3-.2-.9.2-1.8.4-.9.6-1.5.6-2.1l1-2.6,1.4-2.1c0-.9.3-1.9,1-3.2.6-.6,1.1-1.2,1.3-1.8,5.5-3.6,8.6-5.5,9.3-5.6h4.5c2.5,0,4.2,0,5.1-.2,3.5.2,6.4.9,8.7,1.9l1.6.5c4.4,3.6,6.4,7.3,5.9,10.9,0,.7-.6,1.7-1.8,2.7-1.1,1.1-2.3,1.7-3.7,1.9-2.9,0-5.7-.6-8.3-1.8-2.7-1.2-4.8-1.8-6.3-1.8s-2.6.9-3.5,2.6c-1.1,2.5-2.2,7.4-3.5,14.9-1.4,6.6-2,10-1.8,10.3h1.4c1.1.2,2.2.3,3.4.3l5.6.8c1.9,0,4.4.6,7.4,1.8,3.1,1.1,4.4,2.7,3.8,5-.4,2.1-1.9,3.3-4.3,3.5-7-.3-12.6.2-16.8,1.6-.9.3-1.3,2.9-1.3,7.9l-.6,14.4c0,1.6,0,2.5-.3,2.6-.5.4-.5,1.2.2,2.2,0,.2-.2,1.1-.3,2.6,0,1.4,0,2.3.2,2.9-.2.4-.3,2.4-.2,5.9,0,3.4.2,5.6.3,6.6-.2,0-.2.7,0,2.2v2.4c0,4.5,0,7.2-.2,8-.4,4-2.9,6.3-7.4,7.1-2.2.3-4.1,0-5.6-.8-1.5-.7-2.5-1.6-3-2.6-.7-1.4-1.6-3.7-2.6-6.9v-1.8l-.3-2.7c0-.7,0-1.7.3-2.7-.2-1.1-.3-1.8-.3-2.1v-4.2c0-1.7,0-3.7-.2-5.9v-3.7c0-.7,0-2.8.3-6.2,0-1.5-.2-3-.2-4.5.3-6.5.4-10.8.2-12.8.2-.6.3-1.4.3-2.2v-2.2c.2-.6.3-1.2.3-1.8s0-1.2-.3-1.9c-1.5-.2-2.7-.2-3.5,0v.2Z"/>
  </g>
  <path class="st0" d="M50.7,145.4c0-7.6-2.5-11.7-4.1-13-3.5-1.6-7.8-3.7-8.9-4.1-4.8-1.5-7.9-4.1-13.1-5.6-4.8-2.6-7.1-5.5-10.5-9.4-3.3-3.8-6.4-7.6-8.2-11.9-1.8-4.1-3.1-8.3-3-13.6.3-10.2,0-14.6,1.6-18.6,1.6-4.1,3.8-7.8,5.7-12.1,1.8-4.1,5.5-9,10.8-12.1,4.8-2.7,9.3-5.2,14.2-6.3,9.1-1.8,22.8,1.2,32.6-1.4,1.9-.5,2.2-1.5,2.7-2.6,1.9-4.1,3.4-16.2,7.2-19.5,3.7-3.1,6.4-6.4,10.6-9,4.5-2.9,12.4-5.2,19.1-5,14.3.1,17.2.5,21.8,1.9,4.8,1.4,9.7,3,14.2,6,4.4,3,9.1,6.5,11.6,11,2.2,4.1,3.3,17.3,8.6,19.2,1.4.5,3,.4,4.4.3,8-.8,19.9-.3,25,1.2h0c4.6,1.4,9.8,2.9,15.4,6.4,6.8,4.4,11.6,7.2,14.9,11.7,3,4.1,6.3,7.8,7.5,12.3,2.2,7.9,1.4,18-.3,22l-4.8,12.1c-1.6,4.1-3.8,8.6-7.4,12.3h0c-3.5,3.7-6.4,6.7-11.5,8.7-4.8,1.9-15.8,1.2-21.3,4.1-2.7,1.4-4,5.9-3.5,7.6h0c.5,2.9,1.2,5.7,0,23.2-1,14.3-1.1,32.6-4.9,35.6-1.9,1.5-4.4,2.5-6.7,3.1-4.8,1.4-18,2.9-34.2,2.9-39.8-.1-46.2-.4-52.8-1.9-5.9-1.4-10.9-1.5-16.2-3.1-4.9-1.5-10.6-2.5-14.2-6-1.8-1.9-2.6-4.2-2.3-6.7,1-8.6,0-21.3,0-39.8h-.1Z"/>
  <path class="st1" d="M50.3,150h21c5.9,0,2.3-14.2,7.1-14.2s5.6,5.3,6.4,8c.7,1.6,3.3,4.6,8.2,4,4.9-.8,6.3-4.4,6.1-6,.3-6,1.8-18.7,4.8-18.7s5,7,5.7,8.9,2.2,2.9,4.1,2.9,3.4-1.9,3.7-4.5c.7-4.9,1.1-14.9,4.8-14.9s4.1,7,4.8,9.8l4.8,19.5c.3,1.9,2,5.7,7.8,5.7s8.3-6.3,8.9-9.4c.3-1.8,2-5.2,6.4-5.2s6.1,5.2,6.4,7.8c.7,2.7,3.1,6.1,8.6,6.1h12.4v8.2h-12.4c-5.5,0-7.9,3.4-8.6,6.1-.3,2.6-2,7.8-6.4,7.8s-6.1-3.4-6.4-5.2c-.5-3.1-3.1-9.4-8.9-9.4s-7.6,3.8-7.8,5.7l-4.8,19.5c-.7,2.9-1,9.8-4.8,9.8s-4.1-9.8-4.8-14.9c-.4-2.7-1.8-4.5-3.7-4.5s-3.7,1.8-4.1,2.9c-1,2.7-2.7,8.9-5.7,8.9s-4.4-12.7-4.8-18.7c0-1.6-1.2-5.2-6.1-6-4.9-.8-7.5,2.3-8.2,4-1,2.7-2.3,8-6.4,8s-1.2-14.2-7.1-14.2h-21v-8.2.3Z"/>
</svg>