<svg width="20" height="24" viewBox="0 0 20 24" fill="none" xmlns="http://www.w3.org/2000/svg">
<path d="M8.28523 0.17026C9.11315 0.0964565 9.99003 0 10.4255 0C10.674 0 11.3536 0.146146 11.5487 0.170991C12.1822 0.341982 12.7653 0.536357 13.3507 0.853494C13.8863 1.17209 14.3523 1.71355 14.6404 2.34053C14.9093 2.92585 15.0144 3.6294 15.2491 4.36246C15.4442 4.97189 15.6893 6.27679 15.3938 7.16336C15.1987 7.74867 14.9796 8.37126 14.6382 8.91711C14.2721 9.50243 13.9456 10.1753 13.3463 10.524C12.761 10.8645 12.2339 11.3521 11.4434 11.3512C10.1303 11.3497 8.44515 11.6354 7.37839 11.0815C6.76896 10.7651 6.1739 10.4994 5.77152 10.0337C5.3075 9.49658 4.73572 8.9805 4.60308 8.32814C4.43355 7.49438 3.90634 6.39083 4.31225 4.25724C4.48324 3.35844 4.63458 2.6749 5.06855 2.21485C5.50626 1.75083 5.79389 1.21983 6.35975 0.924375C6.92096 0.631352 7.58388 0.232781 8.28523 0.17026Z" fill="#761B00"/>
<path d="M7.69472 13.6979C8.91582 13.6898 9.75495 13.6493 10.0451 13.6493C10.5053 13.6493 10.9442 13.6409 11.0095 13.6493C11.2877 13.6898 11.735 13.6979 12.1272 13.6979C12.5508 13.6979 13.0583 13.7824 13.2689 13.8044L13.2794 13.8055C13.5182 13.8304 13.9582 13.8763 14.3594 14.0258C14.7314 14.1645 14.8594 14.2952 15.2517 14.5127C15.4715 14.6346 15.7167 14.7404 16.0008 14.9607C16.2532 15.1564 16.4706 15.3554 16.6438 15.5142C16.8394 15.6938 17.0251 15.8644 17.1892 16.0355C17.3768 16.2312 17.5786 16.4837 17.7755 16.6623C17.9464 16.8174 18.1587 17.02 18.2474 17.2569C18.3207 17.4525 18.6672 17.9941 18.8594 18.5C19.0255 18.9373 19.0896 19.4614 19.192 19.6507C19.2977 19.8464 19.3681 20.0394 19.4362 20.2453C19.5254 20.5147 19.6192 20.8016 19.6151 21.11C19.6065 21.7517 19.5989 22.0188 19.5252 22.24C19.4599 22.4356 19.439 22.7151 19.2318 22.8262C18.8594 23.0258 18.4683 22.9192 17.4779 22.9803C17.0822 23.0048 16.6668 22.9855 16.1115 23.0292C15.5966 23.0697 15.0428 23.0741 14.7448 23.1269C14.6068 23.1513 13.7261 23.1004 12.5185 23.1757C11.869 23.2163 11.3594 23.2568 10.2075 23.2568C9.8671 23.2568 9.36926 23.2642 8.71796 23.208C8.4351 23.1836 7.8036 23.2156 6.92576 23.1591C6.54592 23.1347 6.26385 23.1456 5.9096 23.1103C5.50241 23.0697 5.2094 23.0699 4.21511 23.0126C3.5121 22.972 2.86431 22.9668 2.1398 22.9149C1.80613 22.8909 1.18244 23.0358 0.854209 22.8658C0.618001 22.7434 0.393058 22.6342 0.276513 22.4339C0.162683 22.2382 -0.000233313 22.0599 0 21.7646C0.000488789 21.1468 0.0255029 20.8852 0.0818304 20.6669C0.14705 20.414 0.207456 20.0496 0.285307 19.7059C0.342465 19.4536 0.288686 19.1974 0.546186 18.5654C0.668809 18.2645 0.829545 17.9708 1.04303 17.6623C1.18959 17.4506 1.29992 17.2622 1.39282 17.06C1.48271 16.8643 1.67807 16.6547 1.78365 16.4249C1.87354 16.2292 1.98085 16.0101 2.23213 15.7978C2.49301 15.5775 2.74475 15.4403 2.90753 15.2524C3.06265 15.0733 3.24997 14.9312 3.45323 14.813C3.64889 14.6991 3.82348 14.5602 4.03948 14.4793C4.23514 14.406 4.41733 14.3131 4.62572 14.235C4.82138 14.1617 5.01208 14.0501 5.28598 13.9744C5.66851 13.8686 5.99222 13.8167 6.36101 13.7956C6.79215 13.7709 7.08343 13.7019 7.69472 13.6979Z" fill="#761B00"/>
</svg>
