<svg width="35" height="15" viewBox="0 0 35 15" fill="none" xmlns="http://www.w3.org/2000/svg">
<path d="M34.003 6.46875C34.3992 6.82812 34.9069 7.2118 34.8882 7.39179C34.8695 7.57179 34.6233 7.84567 34.5475 7.97867C34.3969 8.26107 34.1706 8.63798 33.5848 9.18581C33.1881 9.6578 32.7552 10.0561 32.2832 10.4303C31.8298 10.7897 31.4499 11.2645 30.8304 11.6374C30.3584 11.9215 29.8392 12.1162 29.3279 12.4347C28.8746 12.7171 28.5077 12.9407 28.0222 13.1638C27.5688 13.372 26.8999 13.7196 26.3008 13.9193C25.8475 14.0704 25.3822 14.1881 24.9426 14.3913C24.4123 14.6363 23.8621 14.7582 23.3927 14.8088C22.8625 14.866 22.1556 14.9773 21.2561 14.9561C18.8299 14.8989 18.0484 15.0789 17.4556 14.9561C17.0023 14.8621 16.4869 14.6741 15.9072 14.5028C15.0781 14.2577 14.6359 14.0904 14.1732 13.8423C13.6814 13.5786 13.1729 13.2992 12.6825 13.1638C12.1353 13.0127 11.6833 12.7873 11.2304 12.5978C10.777 12.4082 10.2918 12.2336 9.8721 11.9181C9.41879 11.5775 8.99365 11.1704 8.41935 10.7104C7.94736 10.3324 7.42832 10.0337 6.9847 9.57744C6.28803 8.86096 6.10465 8.27254 5.66551 8.01376C5.57043 7.95773 5.44156 7.92533 5.34462 7.99621C4.92979 8.29955 4.59646 8.73488 4.09956 9.05281C3.68473 9.31824 3.27295 9.64979 2.8545 10.0155C2.40119 10.4116 1.90016 10.6493 1.49626 11.0149C1.11991 11.3556 0.829182 11.9431 0.364388 11.8621C0.250633 11.8423 0.105186 11.7744 0.08255 11.5763C0.0265236 11.0862 0.324974 10.5548 0.120468 6.51516C0.0265198 4.65945 -0.129917 2.69543 0.197433 2.48683C0.255161 2.45004 0.380405 2.46649 0.480968 2.54455C0.895802 2.86657 1.23533 3.27968 1.63152 3.63907C2.02767 3.99844 2.31032 4.54964 2.76339 4.88413C3.19803 5.20502 3.57613 5.57925 3.98977 5.94073C4.44308 6.33689 4.90341 6.95283 5.63155 6.80662C5.91339 6.75002 6.1554 6.65315 6.38594 6.44668C6.9332 5.95658 7.62371 5.53179 8.04527 5.089C8.40463 4.71152 8.8356 4.24225 9.23931 3.89449C9.78657 3.42307 10.256 3.1471 10.6915 2.81978C11.1448 2.47909 11.7034 2.32625 12.1585 2.03295C12.7442 1.65547 13.283 1.46349 13.7239 1.27912C14.1772 1.08953 14.6954 0.7292 15.5994 0.619239C17.4556 0.39343 18.5066 0.129138 19.2381 0.129138C19.869 0.129138 20.2643 0.082637 20.7862 0.0212363L20.836 0.0153854C21.308 -0.0400764 21.9827 0.0676195 22.5717 0.129138C23.119 0.186298 23.5881 0.244651 24.1184 0.39343C24.5904 0.525859 25.3154 0.641164 25.9294 0.959932C26.4014 1.20498 26.8395 1.38224 27.3448 1.62038C27.986 1.92259 28.544 2.17074 29.0986 2.52588C29.5706 2.82809 30.0528 3.07245 30.4756 3.33686C30.9289 3.6204 31.3057 3.99608 31.7206 4.33687C32.1355 4.67756 32.495 4.99568 32.8712 5.33688C33.2673 5.69625 33.6069 6.10936 34.003 6.46875Z" fill="#761B00"/>
<path d="M27.1157 5.9057C26.9645 5.86827 26.6963 5.79857 26.6321 5.80922C26.4689 5.80922 26.373 5.80374 26.3032 5.80922C26.1907 5.82535 26.0833 5.85762 25.9431 5.92764C25.7603 5.99798 25.6043 6.06749 25.5023 6.1698C25.3731 6.29936 25.2821 6.44778 25.2445 6.58411C25.2014 6.74012 25.1913 7.08415 25.207 7.34819C25.2233 7.6223 25.2343 7.78491 25.3093 7.92851C25.3853 8.07404 25.5547 8.2088 25.6969 8.25619C25.8261 8.29926 25.9585 8.31311 26.2028 8.35831C26.4069 8.39606 26.7186 8.46001 26.9664 8.37945C27.1813 8.30959 27.3384 8.26958 27.4608 8.09953C27.5576 7.96498 27.6402 7.84464 27.6918 7.707C27.7402 7.57777 27.8623 7.44103 27.7883 7.10426C27.7505 6.93243 27.714 6.75846 27.6645 6.60993C27.6215 6.4807 27.5281 6.35707 27.4385 6.22272C27.3523 6.09349 27.2635 5.94231 27.1157 5.9057Z" fill="#FFF3C4"/>
</svg>
