<svg width="54" height="23" viewBox="0 0 54 23" fill="none" xmlns="http://www.w3.org/2000/svg">
<path d="M52.1381 9.91875C52.7456 10.4698 53.524 11.0581 53.4953 11.3341C53.4666 11.6101 53.0892 12.03 52.9729 12.234C52.7421 12.667 52.395 13.2449 51.4968 14.0849C50.8885 14.8086 50.2248 15.4193 49.501 15.9931C48.8059 16.5442 48.2234 17.2723 47.2734 17.8441C46.5497 18.2797 45.7536 18.5782 44.9696 19.0666C44.2745 19.4996 43.712 19.8424 42.9674 20.1845C42.2724 20.5038 41.2467 21.0367 40.3281 21.3429C39.633 21.5746 38.9195 21.7552 38.2454 22.0666C37.4323 22.4424 36.5887 22.6292 35.869 22.7068C35.0559 22.7945 33.972 22.9652 32.5928 22.9327C28.8727 22.845 27.6744 23.121 26.7655 22.9327C26.0704 22.7886 25.28 22.5003 24.3912 22.2376C23.12 21.8618 22.4419 21.6054 21.7324 21.2249C20.9783 20.8205 20.1986 20.3921 19.4467 20.1845C18.6076 19.9528 17.9145 19.6071 17.22 19.3167C16.5249 19.026 15.7809 18.7582 15.1374 18.2745C14.4423 17.7521 13.7904 17.128 12.9098 16.4227C12.1861 15.843 11.3902 15.385 10.71 14.6854C9.64178 13.5868 9.3606 12.6846 8.68724 12.2878C8.54145 12.2019 8.34385 12.1522 8.19521 12.2609C7.55914 12.726 7.04803 13.3935 6.28613 13.881C5.65005 14.288 5.01866 14.7963 4.37704 15.3571C3.68195 15.9645 2.9137 16.3289 2.29439 16.8895C1.71733 17.4119 1.27154 18.3127 0.558857 18.1886C0.384434 18.1582 0.161419 18.054 0.126705 17.7504C0.0407982 16.9989 0.498421 16.184 0.184845 9.98991C0.0407944 7.1445 -0.199078 4.133 0.302864 3.81313C0.391376 3.75673 0.58342 3.78195 0.737617 3.90165C1.37369 4.39541 1.89431 5.02884 2.50179 5.57991C3.10923 6.13094 3.54261 6.97611 4.23732 7.489C4.90377 7.98103 5.48353 8.55485 6.11778 9.10912C6.81286 9.71656 7.5187 10.661 8.63517 10.4368C9.06732 10.35 9.4384 10.2015 9.79191 9.88491C10.631 9.13342 11.6898 8.48208 12.3362 7.80313C12.8872 7.22433 13.5481 6.50479 14.1671 5.97155C15.0062 5.2487 15.726 4.82556 16.3938 4.32366C17.0888 3.80127 17.9453 3.56691 18.6431 3.11718C19.5413 2.53838 20.3674 2.24402 21.0434 1.96132C21.7385 1.67061 22.5331 1.11811 23.9192 0.9495C26.7655 0.60326 28.3769 0.198012 29.4986 0.198012C30.466 0.198012 31.0721 0.12671 31.8723 0.032562L31.9486 0.0235909C32.6724 -0.0614504 33.7069 0.103683 34.6101 0.198012C35.4492 0.285657 36.1686 0.375132 36.9817 0.60326C37.7054 0.806318 38.8171 0.983119 39.7585 1.4719C40.4823 1.84764 41.1541 2.11943 41.9288 2.48458C42.912 2.94797 43.7676 3.32847 44.6181 3.87301C45.3418 4.3364 46.0811 4.71108 46.7293 5.11652C47.4244 5.55127 48.0022 6.12732 48.6384 6.64987C49.2745 7.17227 49.8259 7.66004 50.4026 8.18322C51.01 8.73425 51.5306 9.36768 52.1381 9.91875Z" fill="#FFF3C4"/>
<path d="M41.5775 9.05541C41.3457 8.99801 40.9346 8.89115 40.8361 8.90747C40.5858 8.90747 40.4388 8.89906 40.3317 8.90747C40.1593 8.93221 39.9945 8.98169 39.7796 9.08905C39.4993 9.19691 39.2602 9.30348 39.1037 9.46037C38.9055 9.65901 38.7661 9.8866 38.7084 10.0956C38.6423 10.3349 38.6269 10.8624 38.651 11.2672C38.676 11.6875 38.6928 11.9369 38.8078 12.1571C38.9243 12.3802 39.1841 12.5868 39.402 12.6595C39.6002 12.7255 39.8032 12.7468 40.1778 12.8161C40.4908 12.874 40.9687 12.972 41.3487 12.8485C41.6782 12.7414 41.9191 12.68 42.1067 12.4193C42.2551 12.213 42.3819 12.0285 42.461 11.8174C42.5352 11.6193 42.7224 11.4096 42.6089 10.8932C42.551 10.6297 42.4951 10.363 42.4191 10.1352C42.3531 9.93707 42.2099 9.74751 42.0726 9.54151C41.9405 9.34336 41.8043 9.11155 41.5775 9.05541Z" fill="#761B00"/>
</svg>
