<svg width="427" height="402" viewBox="0 0 427 402" fill="none" xmlns="http://www.w3.org/2000/svg">
<path d="M285.165 377.658C279.54 379.532 276.04 381.079 273.759 382.22C272.465 382.867 270.28 383.489 269.095 384.079C263.969 385.849 258.483 387.418 253.758 388.792C249.034 389.789 242.706 391.174 237.242 392.532C232.518 393.705 226.996 395.147 220.921 396.265C215.601 397.245 210.099 397.895 204.205 398.625C196.301 399.604 187.709 400.499 181.006 400.984C167.469 401.963 145.614 401.234 140.105 400.583C131.818 399.604 123.842 399.559 119.272 398.224C114.547 396.843 108.644 395.264 103.936 392.319C99.2109 389.364 94.6874 385.932 89.7792 383.076C85.0545 380.328 80.0288 378.559 75.6227 375.803C70.898 372.848 66.1294 369.795 59.8795 365.174C51.6216 359.069 44.7323 354.162 38.2614 346.688C31.9441 339.392 25.4292 332.881 22.937 326.639C20.9728 321.72 19.4038 317.013 17.8289 312.288C16.254 307.563 15.4485 302.729 14.0951 296.946C12.7149 291.047 11.3409 286.293 9.57095 279.445C7.99605 273.352 6.06871 268.745 4.85213 263.719C3.27722 257.213 1.98803 251.018 1.31301 244.054C0.139204 231.944 0.209504 215.417 1.51946 210.633C3.30082 204.127 5.58217 198.132 7.02869 193.138C8.39715 188.413 10.7005 183.916 11.7416 178.981C12.7385 174.256 14.8112 169.378 17.8466 164.825C20.9964 160.1 24.3719 154.131 29.6672 148.486C38.692 138.865 41.7433 134.236 45.5756 130.413C50.8902 125.11 54.8068 121.182 57.9566 116.457C61.1064 111.732 67.8635 106.186 70.7328 99.9409C72.9035 95.2162 76.3876 90.6386 78.0057 85.7844C79.5806 81.0597 80.8753 75.6164 81.3443 68.661C81.94 59.825 87.3204 54.8371 83.6978 31.6772C82.3175 22.853 76.0426 14.7027 79.9758 13.2443C81.5507 12.6604 85.9084 15.5594 87.1671 13.2445C88.3409 11.0856 88.5618 3.8238 90.5888 3.62972C96.6879 3.04576 101.824 15.295 108.838 13.2445C114.932 11.4631 118.876 -0.480797 123.041 0.668655C125.2 1.26441 128.029 1.84959 129.724 3.62972C133.47 7.56404 137.979 11.7676 143.102 15.2321C149.207 19.3611 154.528 22.2841 159.818 23.4842C169.309 25.6371 182.426 22.9064 189.311 22.2927C195.994 21.6969 203.247 21.9789 219.217 19.538C228.247 18.1578 246.352 16.2975 264.152 16.3941C273.759 16.4463 299.474 20.9006 304.555 22.9329C310.258 25.2141 322.392 29.2872 331.678 35.2989C342.301 42.1766 350.501 46.4278 355.248 50.6233C360.374 55.1534 365.732 59.2197 370.785 63.4054C376.489 68.1301 380.349 73.7608 393.801 85.2418C400.484 90.9456 405.794 96.0295 411.284 105.096C414.617 110.6 417.438 115.14 418.941 120.031C420.516 125.157 421.272 130.569 424.934 141.555C426.899 147.447 426.041 163.582 424.934 174.541C424.339 180.44 425.921 191.346 423.601 196.891C421.625 201.616 418.482 207.11 415.338 212.227C412.188 217.353 411.208 222.417 408.353 227.326C405.604 232.05 404.035 236.757 402.46 241.482L402.46 241.482C400.885 246.207 398.1 250.456 393.801 263.719C391.448 270.981 389.879 275.688 388.304 280.412C386.729 285.137 382.498 288.798 379.798 294.828C377.244 300.532 375.066 306.146 371.735 311.144C368.585 315.868 365.483 322.092 360.716 326.68C355.207 331.983 350.125 335.481 345.775 339.651C341.051 344.181 337.128 349.672 332.604 353.413C328.074 357.158 323.633 361.498 315.687 366.195C310.378 369.333 305.801 372.038 300.947 373.656C296.222 375.231 288.587 376.517 285.165 377.658Z" fill="#E2572E"/>
</svg>
