<svg width="16" height="25" viewBox="0 0 16 25" fill="none" xmlns="http://www.w3.org/2000/svg">
<path d="M5.79578 0.0332882C3.99261 0.047805 3.29353 0.0337265 2.85201 0.0337281C2.04593 0.033731 1.42767 0.239164 1.33925 0.283594C0.986888 0.503987 0.389476 0.759597 0.211728 1.32283C0.0867897 1.71873 -0.133192 2.90255 0.108397 3.62731C0.225851 3.97968 0.274894 4.52688 0.454513 4.87357C0.674906 5.29896 0.885439 5.57711 1.03113 5.9661C1.1631 6.31846 1.4991 6.71644 1.78048 7.22002C1.98547 7.5869 2.34014 7.91324 2.54854 8.27256C2.76846 8.65176 3.19079 9.02082 3.5415 9.3273L3.55002 9.33474C3.90239 9.64268 4.1545 10.0771 4.50833 10.4164C4.86069 10.7542 5.31759 10.9875 5.46072 11.3696C5.5927 11.722 5.80239 12.389 5.6137 12.7641C5.43642 13.1164 5.14483 13.3923 4.91569 13.7049C4.63547 14.0872 4.31571 14.4647 4.00772 14.7274C3.64107 15.0402 3.213 15.5133 2.97341 15.8899C2.74443 16.2499 2.57879 16.5021 2.27669 16.8394C1.89573 17.2648 1.46452 17.8801 1.15252 18.3481C0.917611 18.7005 0.698888 19.1394 0.578215 19.5014C0.460761 19.8537 0.210895 20.1994 0.210895 22.3272C0.210895 23.1049 0.369408 23.4534 0.66695 23.7501C0.990281 24.0726 1.27219 24.3843 1.63809 24.4481C2.14002 24.5357 2.84063 24.5695 4.82465 24.5695H9.10373C10.3784 24.5695 11.8181 24.4916 12.3206 24.4916C13.2614 24.4916 14.2245 24.524 14.8092 24.266C15.1761 24.1041 15.4233 23.8566 15.6286 23.4466C15.805 23.0943 16.177 21.7933 15.9017 20.8974C15.7843 20.5151 15.6998 19.8464 15.3423 19.1529C15.1228 18.7271 14.9063 18.2959 14.5967 17.8626C14.2303 17.3496 14.1267 16.9573 13.838 16.679C13.4417 16.2967 13.0245 15.7051 12.6241 15.374C12.2863 15.0947 11.9352 14.4638 11.4709 14.1298C11.104 13.8658 10.8644 13.6764 10.6515 13.3104C10.4465 12.958 10.1029 12.4193 10.3177 11.7322C10.4505 11.3073 10.5833 11.1039 10.8943 10.8218C11.2022 10.5425 11.5553 10.1276 11.8654 9.85066C12.4127 9.36193 13.3017 8.34376 13.6256 7.78699C13.8306 7.43463 14.1511 7.15606 14.3843 6.75515C14.5893 6.40279 14.7867 6.05853 14.9922 5.66276C15.1826 5.29587 15.317 4.83083 15.4171 4.34304C15.5046 3.91633 15.6745 3.40051 15.6661 2.88915L15.6659 2.87593C15.6506 1.94786 15.6424 1.44836 15.4171 1.1104C15.1822 0.758034 14.8187 0.220414 14.4754 0.0337284C14.3143 -0.0538127 13.1533 0.0598341 11.3506 0.0332882C10.3648 0.0187713 8.53566 0.0187713 7.57623 0.0337281C6.6168 0.0486848 6.43775 0.0281199 5.79578 0.0332882Z" fill="#761B00"/>
<path d="M5.91338 6.45967C5.15048 6.46701 4.88578 6.42255 4.62187 6.42255C4.15455 6.42255 4.05037 6.57364 4.00569 6.60343C3.96101 6.63322 3.89894 6.70736 3.8843 6.75517C3.83605 6.91276 3.8701 7.00804 3.8843 7.05865C3.93631 7.24404 4.06933 7.41206 4.24847 7.57457C4.40408 7.71573 4.58783 7.79415 4.71123 7.97926C4.82993 8.15732 5.00764 8.27303 5.1856 8.4683C5.33409 8.63124 5.47623 8.79085 5.65241 8.90533C5.82313 9.01625 6.01199 9.12565 6.16041 9.27407C6.3425 9.45616 6.55381 9.55817 6.76737 9.85068C6.90808 10.0434 7.09921 10.1924 7.19334 10.38C7.29026 10.5732 7.37586 11.4056 7.41541 11.9143C7.43786 12.203 7.40493 12.6215 7.41541 13.4621C7.42274 14.0507 7.43556 15.1005 7.41541 15.6732C7.39318 16.305 7.45439 16.4684 7.41541 16.6183C7.36339 16.8184 7.37535 16.9783 7.24447 17.1377C7.11065 17.3006 6.97015 17.4291 6.85168 17.5896C6.72564 17.7603 6.58609 17.9448 6.43666 18.1158C6.28105 18.2938 6.08379 18.4256 5.94797 18.5909L5.94428 18.5954C5.81153 18.7571 5.66907 18.9306 5.31066 19.189C4.62311 19.6847 4.45419 19.9472 4.24847 20.1387C3.92282 20.4419 3.77679 20.6419 3.52012 20.8671C3.34251 21.0229 3.16998 21.1402 3.09526 21.3526C2.98477 21.6668 3.08593 22.002 3.24692 22.1113C3.4103 22.2223 3.49379 22.2431 3.71198 22.272C3.8229 22.2866 3.92664 22.3159 4.64294 22.3238C5.31492 22.3311 6.56143 22.301 7.22253 22.2934C7.88362 22.2859 7.95352 22.3008 8.4061 22.2934C8.85869 22.2861 9.67254 22.3136 10.1056 22.2934C10.5831 22.2712 11.2543 22.3495 12.1996 22.2934C12.5744 22.2712 12.7065 22.2477 12.7762 22.172C12.8649 22.0758 12.9176 22.074 12.9358 21.9823C12.98 21.7589 12.9842 21.4767 12.8833 21.3154C12.772 21.1374 12.6318 20.981 12.4979 20.819C12.3567 20.6483 12.1827 20.5024 12.0533 20.3671C11.897 20.2037 11.6277 19.9705 11.4233 19.8041C11.1848 19.6098 10.8974 19.336 10.712 19.189C10.5339 19.0478 10.3479 18.8784 10.186 18.6924C9.93908 18.4085 9.49018 17.9139 9.27443 17.7143C9.08193 17.5362 8.84415 17.3197 8.71159 17.0919C8.608 16.9138 8.55072 16.2956 8.55791 15.7079C8.56525 15.1079 8.58886 14.647 8.586 14.195C8.57866 13.0393 8.52996 12.3079 8.52756 12.1571C8.51978 11.6688 8.52706 11.0922 8.62334 10.7788C8.68269 10.5856 8.73069 10.3504 8.87586 10.1857C9.09793 9.93387 9.26017 9.83121 9.48383 9.60755C9.84039 9.25099 10.1485 8.97094 10.3874 8.74105C10.5802 8.55566 10.7924 8.4168 10.9356 8.25246C11.0768 8.09049 11.2429 7.93246 11.4106 7.75666C11.5591 7.60106 11.7018 7.5229 11.7748 7.30144C11.8706 7.0109 12.0043 6.59865 11.8659 6.47435C11.7918 6.40788 11.3444 6.4332 10.9356 6.41522C10.4255 6.39276 9.4642 6.40128 8.7765 6.38543C8.45818 6.37809 8.22274 6.41226 7.84621 6.41522C6.91281 6.42255 6.25152 6.45642 5.91338 6.45967Z" fill="#FFF3C4"/>
</svg>
