<svg width="586" height="704" viewBox="0 0 586 704" fill="none" xmlns="http://www.w3.org/2000/svg">
<path d="M474.042 95.0155C477.425 94.5311 480.654 97.7004 482.5 99.8443C483.401 100.892 484.777 105.071 484.321 106.464C482.448 112.184 475.269 119.462 470.428 124.007C465.744 128.404 461.912 133.132 457.749 137.902C453.701 142.541 448.487 145.426 444.49 150.505C438.769 157.775 430.65 164.995 426.958 169.922C423.265 174.848 418.442 179.047 414.279 183.817C410.23 188.456 406.908 193.652 402.833 199.727C399.181 205.171 393.823 209.096 390.13 214.023C386.438 218.949 380.47 224.897 376.848 229.73C372.731 235.223 369.212 241.969 364.579 248.15C358.148 256.73 344.346 273.623 336.621 281.358C328.246 289.743 324.172 297.187 318.792 303.35C314.418 308.361 307.594 316.23 301.656 322.5C297.238 327.164 291.448 332.405 285.522 338.639C279.848 344.608 274.694 350.405 270.075 355.784C262.86 364.186 257.176 370.703 248.117 381.752C242.096 389.096 236.577 394.064 226.001 405.123C214.472 417.177 209.229 422.372 204.838 427.066C200.299 431.917 194.18 436.821 188.014 441.446C182.602 445.505 178.338 450.514 174.175 455.284C173.413 456.158 173.597 458.739 174.319 459.915C175.593 460.171 176.272 460.406 175.199 460.508C174.856 460.54 174.558 460.305 174.319 459.915C173.144 459.679 171.463 459.427 170.181 459.246C169.676 459.462 169.095 459.844 169.159 460.51C170.208 471.4 159.932 476.85 155.879 482.257C152.257 487.09 147.592 491.458 143.2 496.152C138.496 501.18 133.551 504.9 128.71 509.444C124.025 513.841 119.06 518.191 114.219 522.736C109.378 527.28 102.985 530.956 97.9158 535.424C92.4411 540.25 85.1072 544.016 78.3352 545.865C71.8094 547.647 63.4941 548.118 58.0578 546.308C49.0244 543.3 45.6825 536.522 43.8371 534.378C41.9949 532.238 43.208 528.535 43.6636 525.62C44.1189 522.708 47.3423 520.689 50.1781 519.074C56.1241 515.687 60.5815 522.455 67.1105 525.167C73.5499 527.841 80.291 521.621 85.8308 517.309C91.1692 513.154 97.1973 507.12 102.737 502.809C108.277 498.497 112.233 496.023 116.624 491.329C121.328 486.301 126.878 480.769 131.719 476.225C136.403 471.828 142.422 465.815 146.813 461.121C151.351 456.27 157.992 454.561 162.383 449.867C167.087 444.838 173.815 439.355 179.668 434.102C188.081 426.552 199.035 415.964 202.727 411.038C207.432 404.761 214.248 397.973 217.864 392.514C222.453 385.587 224.85 379.984 228.39 374.753C232.367 368.876 238.946 357.593 251.084 344.196C273.379 319.591 277.404 314.478 282.245 309.934C287.397 305.097 293.079 299.715 299.68 294.481C306.286 289.242 313.661 282.497 319.807 275.582C332.178 261.661 337.331 257.576 341.032 251.884C344.781 246.119 353.771 240.516 358.091 235.276C362.007 230.525 359.484 222.068 363.556 215.239C371.546 201.841 376.206 198.201 379.898 193.274C383.591 188.347 387.269 183.439 391.19 178.589C395.366 173.422 400.457 168.938 404.15 164.012C407.842 159.085 411.783 154.921 415.476 149.995C419.168 145.068 424.467 140.564 428.159 135.637C431.953 130.575 436.914 126.263 441.983 121.795C447.058 117.322 451.658 112.727 456.05 108.033C458.574 105.807 461.958 101.83 464.87 99.9871C466.412 99.2095 469.815 95.6207 474.042 95.0155Z" fill="#E2572E"/>
<path d="M563.168 147.033C566.294 151.71 569.315 156.235 565.988 160.033C564.018 162.284 560.096 162.34 558.748 162.53C556.135 162.721 551.223 162.004 545.658 163.346C540.606 164.45 535.67 166.992 529.956 168.183C524.456 169.329 521.493 172.141 516.067 173.623C510.437 175.16 506.104 179.672 500.971 182.687C495.41 185.954 489.731 190.464 485.271 193.563C480.292 197.024 478.238 200.38 473.799 203.834C469.193 207.419 464.131 211.595 459.912 215.314C455.697 219.029 452.335 221.929 448.44 225.585C444.415 229.363 441.465 232.725 437.928 236.268C434.093 240.109 430.476 243.671 427.004 247.966C423.744 251.999 418.303 254.718 415.233 258.814C412.163 262.91 409.031 265.726 405.573 269.688C402.112 273.654 396.677 280.033 392.894 283.583C388.869 287.362 388.745 291.018 384.258 293.8C378.887 297.13 375.073 301.679 370.458 304.541C365.086 307.871 353.911 311.416 357.2 312.46C357.611 312.59 360.081 312.476 360.648 313.62C361.661 315.664 367.895 323.026 358.708 332.17C353.585 337.27 347.258 340.67 343.443 345.389C340.183 349.422 330.057 355.402 322.397 362.854C317.992 367.139 314.934 371.219 309.944 377.878L309.943 377.878C306.494 382.48 302.263 388.915 298.065 393.726C294.604 397.692 289.72 401.024 286.566 405.233C283.496 409.329 280.166 413.695 273.247 419.572C263.179 428.124 258.042 428.863 252.822 432.203C247.114 435.855 240.599 442.186 234.104 446.1C226.31 450.796 217.724 452.426 210.553 456.375C200.92 461.679 212.871 457.454 208.976 461.11C204.951 464.888 190.672 482.951 188.216 487.184C185.727 491.473 180.724 496.962 177.654 501.058C174.584 505.154 170.837 508.836 168.651 513.397C166.536 517.811 162.919 521.373 159.446 525.668C156.186 529.701 152.645 534.637 149.575 538.733C146.505 542.829 143.251 546.625 140.845 554.684C135.134 573.812 137.409 579.355 137.503 584.601C137.622 591.21 139.679 600.405 153.505 597.361C159.697 595.998 164.428 594.199 164.352 589.081C164.271 583.624 171.222 575.654 176.166 577.782C178.396 578.742 186.487 580.516 187.54 585.287C188.047 587.584 188.009 592.026 185.417 596.095C182.284 601.014 178.454 604.838 173.848 608.423C169.242 612.008 164.997 617.466 159.805 618.723C154.238 620.07 148.14 622.72 134.414 616.217C126.88 612.648 120.97 609.175 119.103 603.438C117.313 597.934 112.254 588.739 111.861 583.495C111.468 578.246 114.525 564.768 118.382 555.62C121.452 548.341 123.896 544.099 126.43 539.781C129.369 534.772 134.136 526.204 138.057 520.214C142.415 513.556 146.772 507.368 150.444 502.788C155.386 496.626 157.583 490.34 161.121 485.501C164.254 481.215 167.686 477.452 171.663 472.398C174.986 468.175 178.816 464.351 183.422 460.766C188.028 457.181 197.72 452.308 206.885 447.913C214.489 444.266 220.389 441.952 226.625 437.871C232.884 433.776 238.835 430.748 247.606 422.243C259.204 410.999 269.097 387.215 281.816 377.651C286.923 373.811 288.029 369.442 293.294 365.26L293.449 365.137C298.387 361.216 306.307 354.926 310.171 344.61C317.887 324.008 323.225 314.586 329.347 312.323C336.904 309.529 342.282 307.721 346.72 304.267C351.326 300.682 353.524 292.38 359.677 286.614C369.895 277.038 376.63 273.221 379.7 269.125C382.771 265.029 386.108 262.532 389.262 258.218C392.783 253.403 397.483 248.662 400.955 244.366C404.215 240.333 407.273 236.252 411.826 232.215C423.105 222.213 441.188 204.296 447.827 197.199C451.478 193.296 457.017 189.473 461.396 185.613C465.611 181.898 472.417 176.16 478.046 172.945C484.88 169.041 489.117 164.837 496.132 160.946C502.136 157.616 505.565 155.158 510.864 152.976C518.062 150.012 527.446 146.781 533.573 145.231C538.688 143.937 546.258 141.603 552.898 141.601C558.938 141.599 561.71 144.853 563.168 147.033Z" fill="#E2572E"/>
<path d="M187.367 329.618C196.178 335.446 204.413 336.208 208.386 339.038C212.359 341.867 214.569 344.652 212.012 346.284C209.886 347.641 200.94 347.577 198.453 348.826C189.022 353.501 191.207 352.452 183.487 355.921C174.173 360.106 173.079 361.9 164.278 368.732C155.347 375.664 149.237 384.22 144.082 392.682C138.639 401.616 130.978 410.248 127.244 422.171C120.358 444.153 114.8 458.893 124.142 463.925C130.093 467.131 138.817 467.627 148.567 468.744C158.135 469.84 168.796 470.357 178.577 468.003C189.376 465.403 200.756 463.442 211.922 457.242C223.074 451.05 238.152 447.977 243.448 439.284C248.891 430.35 251.901 432.034 256.127 425.389C257.357 423.454 263.924 412.763 265.41 414.519C266.896 416.275 267.717 418.96 268.007 421.579C269.146 431.864 271.33 442.128 272.507 452.757C273.646 463.042 275.556 474.252 279.619 484.805C283.622 495.202 286.181 507.266 294.673 514.117C302.503 520.434 309.466 528.425 317.636 534.538C325.588 540.487 332.062 551.515 343.457 552.596C348.65 553.088 356.192 554.12 358.944 548.206C363.259 538.933 364.591 530.433 365.713 525.344C368.17 514.203 372.055 504.224 373.922 494.807C375.763 485.514 379.912 475.578 377.536 465.815C374.912 455.036 378.558 436.932 372.088 427.767C365.616 418.601 361.212 412.068 355.47 402.93C352.868 398.788 351.431 394.42 355.363 393.361C359.449 392.261 355.327 391.844 360.005 392.397C369.562 393.526 378.968 395.001 388.899 395.006C398.831 395.011 408.721 394.996 419.402 392.784C430.071 390.574 441.277 388.162 452.49 381.53C462.296 375.73 476.59 367.129 489.541 362.135C500.469 357.921 516.524 346.791 516.427 337.265C516.402 334.771 504.675 325.83 502.255 323.952C493.712 317.32 489.077 311.494 480.152 307.132C464.357 299.411 450.096 290.073 433.043 287.025C419.735 284.646 401.196 283.806 391.369 285.226C380.934 286.735 378.706 292.81 370.232 288.253C368.117 287.116 365.657 284.875 366.166 281.916L366.209 281.662C368.411 268.863 370.844 254.719 370.828 240.568C370.816 230.658 372.15 220.414 368.549 210.13C364.291 197.965 358.852 184.654 355.86 173.752C352.868 162.85 352.599 151.079 348.128 142.339C347.114 140.356 345.167 138.351 342.774 138.528C337.701 138.904 331.308 140.188 326.414 144.235C317.875 151.297 305.868 156.954 300.469 164.738C294.888 172.785 291.571 180.685 285.621 188.609C279.672 196.534 275.787 206.172 272.326 217.365C266.671 235.652 263.263 244.583 263.569 254.838C263.71 259.583 262.785 265.559 257.283 264.735C250.598 263.733 247.363 252.208 242.756 247.908C235.179 240.834 227.907 235.447 218.618 229.717C201.283 219.023 168.186 214.818 156.752 214.262C146.574 213.767 129.923 203.499 121.552 210.814C119.821 212.327 118.28 215.223 118.354 217.998C118.634 228.404 122.616 239.94 126.84 250.911C130.843 261.308 132.552 272.852 140.53 284.32C147.248 293.976 153.26 303.139 162.14 308.804C170.333 314.03 176.187 322.224 187.367 329.618Z" fill="#E2572E" stroke="#E2572E" stroke-width="2" stroke-linecap="round"/>
</svg>
