<svg width="26" height="23" viewBox="0 0 26 23" fill="none" xmlns="http://www.w3.org/2000/svg">
<path d="M13.1442 8.78409C13.353 8.89118 13.5837 8.96012 13.6782 8.96168C13.7727 8.96325 13.8234 8.74751 13.8416 8.69383C13.8599 8.64015 13.8778 8.58728 13.9145 8.56084C13.9512 8.5344 14.0129 8.52462 14.0505 8.56164C14.1318 8.64175 14.191 8.76346 14.2862 8.8375C14.3319 8.87302 14.3945 8.90436 14.4311 8.87222C14.5125 8.80092 14.5863 8.69812 14.603 8.58701C14.6571 8.22782 14.7297 7.71955 14.5935 7.07282C14.5299 6.77078 14.4948 6.09253 14.5394 5.58667C14.5668 5.27528 14.6158 5.01805 14.7118 4.79485C14.8583 4.45383 15.1094 3.9933 15.2466 3.73545C15.3652 3.51273 15.5144 3.30286 15.682 3.04111C15.8361 2.80023 16.0119 2.54731 16.2804 2.24877C16.4887 2.01723 16.6375 1.80538 16.8422 1.65271C17.0695 1.48313 17.3494 1.25513 17.6038 1.10979C17.8853 0.94902 18.1272 0.777305 18.4199 0.691581C18.7554 0.593306 19.0083 0.487018 19.2261 0.415715C19.4439 0.344412 19.6625 0.284668 19.8879 0.24667C20.1509 0.20234 20.4453 0.197431 20.7398 0.139849C20.9666 0.0955184 21.1832 0.0547109 21.5015 0.033028C22.1521 -0.0113028 23.1626 -0.019016 24.1233 0.0602674C25.1976 0.148929 26.0715 0.232643 25.9954 0.300882C25.786 0.488621 25.4965 0.685599 25.4246 0.897479C25.352 1.11139 25.3099 1.32235 25.2068 1.61932C25.0616 2.03753 24.991 2.32529 24.9262 2.78528C24.8811 3.10574 24.8738 3.36663 24.7628 3.57709C24.6266 3.83533 24.4899 4.05578 24.1988 4.35315C23.5378 5.02852 23.2104 5.40495 22.9225 5.53486C22.7047 5.63313 22.4429 5.76011 22.1331 5.93597C21.7258 6.16724 21.4756 6.27874 21.1912 6.44311C20.835 6.649 20.3804 6.89176 20.075 7.00418C19.4961 7.21729 18.9441 7.4129 18.4895 7.59143C18.0821 7.7514 17.8681 7.83195 17.6473 7.89374C17.3926 7.96504 17.0401 7.96965 16.6315 8.17014C16.2875 8.33892 16.0378 8.48475 15.8345 8.70451C15.562 8.99907 15.2336 9.28441 15.1553 9.55C15.0922 9.76391 15.0942 9.99296 15.2105 10.1909C15.3448 10.4199 15.4423 10.6681 15.5242 10.8768L15.5275 10.8853C15.6186 11.1173 15.715 11.3691 15.7994 11.6333C15.8905 11.9185 16.0118 12.1921 16.0985 12.7018C16.1439 12.9685 16.177 13.2237 16.2435 13.5027C16.3071 13.7697 16.376 14.0892 16.3884 15.0008C16.3974 15.6626 16.3974 16.8787 16.3881 17.5231C16.3789 18.1675 16.3582 18.2379 16.3519 18.4186C16.3245 19.2176 16.2555 19.6436 16.2432 20.1467C16.2157 21.2654 16.2031 21.5195 16.1252 21.7722C16.0341 22.0676 15.9365 22.4497 15.7896 22.6356C15.6349 22.8314 15.4256 23.0055 15.1631 22.9999C14.7278 22.9905 14.424 22.9926 14.2212 22.8925C14.1666 22.8655 14.0876 22.8328 14.0858 22.6946C14.0774 22.0462 14.1497 21.8331 14.2223 21.6192C14.2949 21.4053 14.3442 21.1537 14.3944 20.8357C14.4396 20.5497 14.5068 20.2362 14.5394 19.9723C14.5668 19.7496 14.5949 19.5282 14.6664 19.2779C14.73 19.0552 14.7704 18.8432 14.8205 18.6282C14.8746 18.3961 15.033 18.0459 15.0288 17.4574C15.0193 16.1176 15.0288 15.8695 15.0288 15.5647C15.0288 15.3248 15.0229 15.0139 15.0103 14.2646C15.0014 13.7297 14.7659 12.7795 14.7566 12.2587C14.7474 11.738 14.7269 11.6854 14.7205 11.6314C14.693 11.3993 14.7034 11.1156 14.575 10.9371C14.4211 10.7232 14.2823 10.3736 13.9945 10.3146C13.7315 10.2606 12.6232 10.0851 11.9461 10.2438C11.7193 10.2969 11.4757 10.3574 11.0847 10.4932C10.7764 10.6003 10.5235 10.7066 10.2056 10.8762C9.88774 11.0458 9.59333 11.2503 9.33575 11.4191C9.09048 11.5799 8.85697 11.7791 8.48357 12.0782C8.23885 12.2742 8.01136 12.4372 7.80406 12.5941L7.79409 12.6017C7.55974 12.7792 7.27748 12.9929 6.98805 13.1819C6.71613 13.3595 6.49786 13.4645 6.26285 13.6271C5.95477 13.8402 5.73811 13.9478 5.29293 14.1342L5.27836 14.1403C4.96499 14.2717 4.64789 14.4045 4.21126 14.4008C3.12687 14.3914 2.80335 14.3064 2.43648 14.3116C1.7673 14.3209 1.49229 14.3588 1.27812 14.5169C1.06032 14.6777 0.934107 14.9442 0.725323 15.0956C0.516493 15.247 0.326367 15.3894 0.127112 15.5048C0.0814302 15.5312 0.00230136 15.5336 0.000671784 15.3859C-0.00775755 14.6221 0.0645716 14.409 0.137173 14.1951C0.209774 13.9812 0.270684 13.7609 0.437094 13.5179C0.754689 13.054 0.921157 12.6942 1.06195 12.3877C1.18866 12.1118 1.20832 11.8937 1.37003 11.4172C1.46058 11.1505 1.54936 10.9489 1.71482 10.7053C1.93262 10.3845 2.07093 10.132 2.30406 9.824C2.56781 9.47549 2.92302 9.04156 3.1924 8.84525C3.47383 8.64015 4.13594 8.18934 4.58813 7.89294C4.8334 7.73217 5.05906 7.53654 5.51427 7.34922C6.13859 7.09231 6.42774 7.05378 6.88227 7.02982C7.7233 6.98549 8.91653 6.97034 9.53751 7.04798C9.89209 7.09231 10.3319 7.10543 10.6339 7.1994C10.9797 7.30702 11.3554 7.45957 11.7036 7.68063C12.0119 7.87638 12.2253 8.05802 12.4375 8.22355C12.7004 8.42865 12.9111 8.66458 13.1442 8.78409Z" fill="#FFF3C4"/>
</svg>
