<svg width="28" height="25" viewBox="0 0 28 25" fill="none" xmlns="http://www.w3.org/2000/svg">
<path d="M14.1553 9.54793C14.3802 9.66433 14.6286 9.73926 14.7304 9.74096C14.8322 9.74266 14.8868 9.50816 14.9064 9.44981C14.926 9.39147 14.9453 9.33399 14.9849 9.30526C15.0244 9.27652 15.0908 9.26589 15.1313 9.30613C15.2188 9.39321 15.2826 9.52549 15.3852 9.60598C15.4344 9.64459 15.5018 9.67865 15.5412 9.64372C15.6288 9.56621 15.7083 9.45447 15.7263 9.3337C15.7846 8.94328 15.8628 8.39081 15.7161 7.68784C15.6475 7.35954 15.6097 6.62232 15.6578 6.07246C15.6874 5.734 15.7401 5.4544 15.8434 5.2118C16.0013 4.84111 16.2716 4.34054 16.4194 4.06028C16.5471 3.81819 16.7078 3.59007 16.8883 3.30556C17.0543 3.04373 17.2436 2.76882 17.5328 2.44431C17.7571 2.19264 17.9174 1.96237 18.1378 1.79642C18.3826 1.61209 18.684 1.36427 18.958 1.20629C19.2611 1.03154 19.5216 0.844896 19.8368 0.751719C20.1981 0.644897 20.4705 0.529368 20.705 0.451864C20.9396 0.374361 21.175 0.309421 21.4178 0.26812C21.7009 0.219934 22.018 0.214599 22.3352 0.15201C22.5794 0.103824 22.8127 0.0594684 23.1554 0.0359C23.8562 -0.0122857 24.9443 -0.0206696 25.9789 0.065508C27.1359 0.161879 28.077 0.252872 27.995 0.327046C27.7695 0.531109 27.4578 0.745216 27.3804 0.975521C27.3022 1.20803 27.2569 1.43734 27.1458 1.76013C26.9894 2.21471 26.9134 2.52748 26.8436 3.02748C26.795 3.37581 26.7872 3.65938 26.6676 3.88814C26.5209 4.16884 26.3737 4.40846 26.0603 4.73168C25.3484 5.46579 24.9958 5.87495 24.6857 6.01615C24.4512 6.12297 24.1692 6.26098 23.8357 6.45214C23.397 6.70352 23.1275 6.82472 22.8213 7.00338C22.4377 7.22718 21.9481 7.49104 21.6192 7.61324C20.9958 7.84488 20.4013 8.0575 19.9117 8.25156C19.4731 8.42543 19.2426 8.51299 19.0048 8.58015C18.7305 8.65765 18.3508 8.66266 17.9108 8.88058C17.5404 9.06404 17.2714 9.22256 17.0525 9.46143C16.7591 9.7816 16.4054 10.0918 16.321 10.3804C16.2531 10.6129 16.2553 10.8619 16.3805 11.0771C16.5252 11.326 16.6301 11.5958 16.7183 11.8226L16.7219 11.8318C16.82 12.0841 16.9239 12.3577 17.0148 12.6449C17.1129 12.9549 17.2434 13.2523 17.3369 13.8063C17.3858 14.0962 17.4214 14.3736 17.493 14.6768C17.5615 14.9671 17.6357 15.3143 17.649 16.3052C17.6587 17.0245 17.6587 18.3465 17.6487 19.0469C17.6388 19.7473 17.6165 19.8238 17.6098 20.0202C17.5802 20.8887 17.506 21.3517 17.4927 21.8986C17.4631 23.1145 17.4495 23.3908 17.3656 23.6655C17.2675 23.9865 17.1624 24.4019 17.0042 24.6039C16.8376 24.8167 16.6122 25.006 16.3295 24.9999C15.8607 24.9897 15.5336 24.992 15.3152 24.8832C15.2563 24.8538 15.1713 24.8183 15.1693 24.6681C15.1603 23.9633 15.2382 23.7316 15.3163 23.4991C15.3945 23.2666 15.4476 22.9932 15.5017 22.6475C15.5503 22.3366 15.6227 21.9959 15.6578 21.709C15.6874 21.4669 15.7176 21.2263 15.7945 20.9543C15.8631 20.7122 15.9066 20.4817 15.9606 20.2481C16.0188 19.9958 16.1894 19.6151 16.1849 18.9755C16.1746 17.5192 16.1849 17.2494 16.1849 16.9181C16.1849 16.6574 16.1785 16.3194 16.165 15.5051C16.1553 14.9236 15.9017 13.8907 15.8918 13.3247C15.8818 12.7587 15.8597 12.7016 15.8528 12.6428C15.8232 12.3906 15.8344 12.0821 15.6961 11.8881C15.5304 11.6556 15.3809 11.2757 15.071 11.2115C14.7878 11.1529 13.5942 10.9621 12.8651 11.1346C12.6208 11.1923 12.3585 11.2581 11.9374 11.4057C11.6053 11.5221 11.333 11.6376 10.9907 11.8219C10.6483 12.0063 10.3313 12.2286 10.0539 12.4121C9.78975 12.5868 9.53828 12.8034 9.13616 13.1285C8.87261 13.3415 8.62762 13.5187 8.40437 13.6893L8.39359 13.6975C8.14122 13.8904 7.83727 14.1227 7.52559 14.3282C7.23276 14.5212 6.9977 14.6354 6.74461 14.8121C6.41283 15.0437 6.1795 15.1606 5.70008 15.3633L5.68438 15.3699C5.34691 15.5127 5.00542 15.6571 4.5352 15.653C3.3674 15.6428 3.019 15.5505 2.6239 15.556C1.90324 15.5662 1.60708 15.6074 1.37644 15.7793C1.14188 15.954 1.00596 16.2437 0.781117 16.4083C0.556223 16.5729 0.351472 16.7276 0.13689 16.853C0.0876941 16.8817 0.00247839 16.8843 0.000723459 16.7238C-0.00835428 15.8936 0.0695386 15.662 0.147724 15.4295C0.22591 15.197 0.291506 14.9575 0.470716 14.6933C0.812742 14.1891 0.992015 13.7981 1.14364 13.4649C1.2801 13.165 1.30126 12.9279 1.47542 12.41C1.57293 12.1201 1.66854 11.901 1.84673 11.6362C2.08128 11.2875 2.23023 11.0131 2.48129 10.6783C2.76534 10.2994 3.14787 9.82779 3.43797 9.6144C3.74105 9.39147 4.45409 8.90146 4.94107 8.57928C5.2052 8.40453 5.44821 8.19189 5.93845 7.98828C6.61079 7.70903 6.92219 7.66715 7.41168 7.64111C8.3174 7.59292 9.60242 7.57646 10.2712 7.66085C10.653 7.70903 11.1266 7.7233 11.4519 7.82543C11.8243 7.94241 12.2289 8.10823 12.6039 8.34851C12.9359 8.56128 13.1657 8.75871 13.3942 8.93864C13.6774 9.16157 13.9043 9.41802 14.1553 9.54793Z" fill="#761B00"/>
</svg>
