<svg width="30" height="23" viewBox="0 0 30 23" fill="none" xmlns="http://www.w3.org/2000/svg">
<path d="M10.8575 2.11784C13.1365 2.13889 13.834 1.96175 14.2322 1.96175C14.8866 1.84146 17.4225 2.16204 17.8014 2.18249C18.2994 2.24263 19.2162 2.39478 19.4562 2.47477C19.938 2.63536 20.3697 2.60621 20.8515 2.7668C21.3332 2.92739 21.8856 3.03061 22.3517 3.26511C22.8335 3.50749 23.3267 3.79091 23.7952 3.98685C24.277 4.18834 24.7758 4.48162 25.2387 4.82949C25.7205 5.19156 26.2248 5.5633 26.6822 5.9921C27.049 6.33606 27.2872 6.7762 27.6211 7.27704C27.9422 7.75881 28.5238 8.41272 28.7039 9.15902C29.0293 10.5079 28.9839 11.431 28.9959 12.8905C29.0158 15.2957 28.9635 16.6545 28.8337 16.8816C28.7781 16.9789 28.7363 17.2785 28.5092 17.5306C28.3794 17.6746 28.2601 17.8496 28.1847 17.9524C27.8278 18.4391 27.7835 18.4951 27.3411 18.8609C26.8792 19.2428 26.4694 19.4868 26.0107 19.7694C25.3074 20.2028 24.7632 20.3129 24.291 20.4509C23.8092 20.5916 23.1878 20.8078 22.7335 20.8078C22.2257 20.8078 21.461 21.1458 20.1612 21.0471C18.8471 20.9473 17.1725 20.8912 16.6945 20.8065C16.1309 20.7067 15.4652 20.5806 14.9785 20.4509C14.4582 20.3121 14.0634 19.9514 13.5669 19.7437C13.0851 19.5423 12.6422 19.2503 12.2204 18.796C11.8456 18.3924 11.6136 18.0941 11.2794 17.6928C10.8783 17.211 10.4033 16.8491 10.014 16.4922C9.61026 16.1222 9.24176 15.7733 8.7485 15.4863C8.26673 15.2061 7.88196 15.1115 7.33162 14.9123C6.83001 14.7306 6.3455 14.5355 5.54651 14.4311C4.78266 14.3313 3.96045 14.4168 3.49195 14.2209C3.01019 14.0194 2.19393 13.7666 1.83712 13.4097C1.43118 13.0036 1.02583 12.6309 1.02581 11.0085C1.0258 10.3139 0.987295 9.5194 1.02587 8.76964C1.08662 7.58899 0.944514 6.89645 1.02586 6.27116C1.12751 5.48987 1.60992 4.90835 1.92154 4.5859C2.11466 4.38606 2.27038 4.20354 2.50375 4.10594C2.98552 3.90445 3.38908 3.45079 4.01106 3.35086C4.43288 3.28309 4.82721 3.15452 5.30897 2.99393C5.79074 2.83335 6.51425 2.7094 7.0936 2.66946C7.97473 2.60871 8.39022 2.37523 8.89961 2.32203C9.48122 2.26128 9.99625 2.10989 10.8575 2.11784Z" fill="#761B00" stroke="#761B00" stroke-width="2" stroke-linecap="round"/>
<path d="M12.8932 3.12821C13.2393 3.13595 13.4088 3.17992 13.5409 3.15031C13.6512 3.1355 13.8147 3.12092 13.9904 3.11341C14.4671 3.07672 15.1635 3.14755 15.4206 3.15782C15.9794 3.18014 16.421 3.21993 16.8194 3.24621C17.1577 3.26853 18.3349 3.33626 18.9928 3.44805C19.2516 3.49203 19.5723 3.56228 19.8546 3.61732C20.0462 3.65467 20.2204 3.72177 20.5103 3.78681C20.7091 3.83145 20.8882 3.91025 21.0994 3.9784C21.3288 4.05243 21.6886 4.15209 21.9097 4.25109C22.1234 4.34678 22.3046 4.39257 22.4768 4.46456C22.6538 4.53859 22.7822 4.6011 22.9914 4.69761C23.1834 4.78622 23.3955 4.864 23.8364 5.15791C24.7201 5.74705 25.3705 6.15126 25.4515 6.2595L25.46 6.27075C25.5895 6.44367 25.7135 6.60931 25.9158 6.79007C26.1295 6.981 26.2789 7.07283 26.3869 7.2391C26.4972 7.40882 26.6038 7.57007 26.7849 7.80658C26.9542 8.02756 27.0094 8.24499 27.1679 8.41781C27.3369 8.60211 27.4383 8.7736 27.4989 8.95546C27.5579 9.13246 27.5568 9.3207 27.639 9.48581C27.7347 9.67784 27.7891 9.91437 27.8525 10.1046C27.9115 10.2816 27.9773 10.5287 27.9773 11.3361C27.9773 11.6558 27.918 11.8397 27.8448 12.0419C27.778 12.2262 27.6648 12.391 27.5942 12.5795C27.5279 12.7565 27.3384 12.9811 27.1679 13.1245C26.9832 13.2799 26.8745 13.404 26.6804 13.6698C26.5405 13.8614 26.2754 14.0555 26.0846 14.1304C25.8775 14.2117 25.6401 14.3843 25.4515 14.4549C25.2747 14.5211 25.2157 14.5584 24.9793 14.7078L24.9786 14.7082C24.7577 14.8479 24.5878 14.9316 24.4043 14.9657C24.1672 15.0096 23.8831 15.1032 23.6897 15.1349C23.3708 15.1873 22.9738 15.3493 22.7171 15.4003C22.4595 15.4516 22.2831 15.5108 22.1061 15.5475C21.9291 15.5842 21.4602 15.6076 21.2823 15.6209C20.7898 15.6576 20.2913 15.6895 19.6006 15.6209C19.2314 15.5842 18.8424 15.6361 18.2085 15.5325C17.8923 15.4808 17.5698 15.4362 17.2728 15.4147C16.7573 15.3774 16.4649 15.2844 16.2353 15.2379C16.051 15.2006 15.8441 15.1062 15.6364 15.039C15.4077 14.9649 15.1782 14.8484 14.9755 14.7884C14.7252 14.7144 14.5557 14.5858 14.3718 14.4789C14.1948 14.3759 13.9945 14.3214 13.8046 14.162C13.6203 14.0073 13.466 13.8677 13.3038 13.7273C13.1341 13.5803 12.9517 13.4701 12.7808 13.3298C12.6188 13.1967 12.4573 13.0297 12.3465 12.8434C12.2502 12.6814 12.0641 12.5771 11.8893 12.4383C11.6756 12.2686 11.5732 12.0819 11.4182 11.8784C11.2779 11.6941 11.093 11.5592 10.9245 11.4293C10.7325 11.2813 10.6366 11.0288 10.4753 10.9063C10.2905 10.7659 10.0181 10.5967 9.82992 10.4943C9.65292 10.3979 9.47976 10.2426 9.29206 10.1776C9.07837 10.1036 8.93814 9.94418 8.75747 9.8473C8.56544 9.74433 8.29281 9.71585 8.10851 9.62017C7.92422 9.52448 7.69844 9.51431 7.52144 9.47763C7.34443 9.44095 7.19842 9.35059 6.16165 9.25665C5.75681 9.21997 5.46022 9.2021 5.28556 9.1659C5.10855 9.12922 4.89426 9.08336 4.67787 9.05777C4.4275 9.02816 4.19353 8.99293 4.02009 8.90632C3.84309 8.81792 3.63882 8.82331 3.49209 8.6894C3.33869 8.54939 3.12349 8.5827 3.01421 8.4196C2.91057 8.26491 2.68971 8.11463 2.57171 7.93762C2.4537 7.76062 2.2181 7.65316 2.18146 7.45147C2.13019 7.16927 2.03126 6.75366 2.18941 6.42722C2.29283 6.21376 2.33854 5.99181 2.4626 5.82377C2.58789 5.65406 2.78315 5.53035 2.94119 5.36674C3.14758 5.15305 3.31276 5.00981 3.49209 4.94768C3.70578 4.87365 3.85502 4.7589 4.02009 4.65565C4.1936 4.54713 4.40912 4.46643 4.58939 4.39893L4.60024 4.39487C4.77725 4.32857 4.97172 4.25286 5.1823 4.2256C5.41102 4.19599 5.61653 4.13721 5.79353 4.0782C5.97054 4.0192 6.14428 3.974 6.32388 3.95313C6.51592 3.93081 6.69985 3.92408 6.8755 3.89296C7.08256 3.85628 7.34038 3.76522 7.59037 3.73098C7.86306 3.69364 8.24872 3.71225 8.49508 3.65105C8.67208 3.60707 8.90302 3.53883 9.17393 3.52598C9.64439 3.50366 9.84585 3.41276 10.1014 3.39339C10.3957 3.37107 10.6292 3.31618 10.9201 3.305C11.5006 3.28268 11.6749 3.23774 11.8984 3.2166C12.1344 3.19428 12.5453 3.12043 12.8932 3.12821Z" fill="#FFF3C4"/>
<path d="M3.95258 5.32244C3.83538 5.38579 3.71863 5.44431 3.63113 5.49289C3.58139 5.49289 3.46513 5.57979 3.42606 5.58974C3.387 5.59969 3.23138 5.75198 3.23138 5.75198C3.23138 5.75198 3.18394 5.81495 3.1198 5.93457C3.05162 6.06171 2.98888 6.40455 3.0753 6.66382C3.11436 6.78101 3.11257 6.90772 3.18752 7.0394C3.25131 7.15147 3.34648 7.25129 3.48043 7.36114C3.64225 7.49384 3.83831 7.66379 3.95843 7.72194C4.10986 7.79524 4.23619 7.8673 4.36313 7.94638C4.48032 8.01939 4.6116 8.0869 4.75348 8.09737C5.14808 8.12649 5.70536 8.17202 5.85608 8.18018C6.12895 8.19496 6.34233 8.23018 6.57842 8.23871C6.98751 8.25349 7.18466 8.26192 7.53851 8.30704C7.72901 8.33132 7.94746 8.35229 8.07942 8.39482C8.21652 8.43901 8.38146 8.45311 8.59722 8.55138C8.92876 8.70237 9.1021 8.74359 9.34282 8.86814C9.49411 8.94642 9.72983 9.02516 9.92821 9.16091C10.1279 9.29756 10.3765 9.40965 10.5082 9.54614C10.6353 9.67797 10.8016 9.77706 10.9328 9.86803C11.1228 9.99985 11.2366 10.1013 11.3812 10.1996C11.5033 10.2825 11.6492 10.3257 11.7714 10.4142C11.9129 10.5166 12.0388 10.5816 12.1957 10.702C12.3226 10.7993 12.4161 10.885 12.5321 10.9604C12.6445 11.0334 12.7528 11.1071 12.8834 11.1701C13.0249 11.2382 13.1119 11.3483 13.2345 11.3698C13.376 11.3945 13.493 11.4507 13.6344 11.4674L13.6357 11.4675C13.7589 11.482 14.126 11.5251 14.366 11.428C14.4979 11.3746 14.6485 11.3873 14.7756 11.3109C14.8977 11.2376 15.0045 11.1472 15.1316 11.0572C15.2488 10.9743 15.3563 10.8873 15.4583 10.7939C15.5706 10.6911 15.643 10.5461 15.6969 10.4381L15.6971 10.4378C15.7556 10.3206 15.8467 10.233 15.9265 10.1109C16.019 9.96942 16.1073 9.83955 16.1849 9.70621C16.2531 9.58901 16.2799 9.46835 16.3311 9.33063C16.3801 9.19866 16.4044 9.05847 16.4531 8.91598C16.5065 8.75972 16.5766 8.62931 16.5895 8.47207C16.6042 8.29153 16.6074 7.80318 16.5991 7.3822C16.5843 6.63353 16.5582 6.4985 16.5356 6.36534C16.5065 6.19401 16.4798 6.00167 16.4478 5.87286C16.4187 5.75566 16.4041 5.63239 16.3552 5.49728C16.311 5.37526 16.2787 5.23639 16.1793 5.14628C16.0769 5.05337 15.9611 4.97654 15.8673 4.87312C15.7744 4.7707 15.7288 4.62738 15.6234 4.53177C15.521 4.43887 15.4236 4.3611 15.3063 4.29285C15.1891 4.22467 15.0803 4.12661 14.9552 4.08816C14.8376 4.05204 14.7181 4.01745 14.6029 3.98407L14.5748 3.97594C14.4576 3.94199 14.315 3.9411 14.0477 3.87849C13.9016 3.84426 13.7862 3.77737 13.3642 3.77125C13.0313 3.76642 12.4129 3.75477 12.0744 3.7714C11.5799 3.79568 11.4429 3.80932 11.3267 3.82992C11.1896 3.85421 10.9291 3.81836 10.5996 3.88844C10.4387 3.92268 10.2043 3.9407 10.0242 3.97638C9.75454 4.02978 9.48067 4.0354 9.36608 4.06402C9.22899 4.09825 9.03589 4.13011 8.88297 4.142C8.69291 4.15678 8.42301 4.1944 8.22486 4.22496C8.09771 4.24456 7.93918 4.24986 7.57085 4.29811C7.38547 4.3224 7.21192 4.34945 7.05422 4.3761C6.90791 4.40082 6.75113 4.43526 6.61544 4.46389C6.49824 4.48861 6.37978 4.54111 6.23986 4.58591C6.11783 4.62497 5.93954 4.63271 5.79112 4.6737C5.64964 4.71276 5.53511 4.76057 5.41569 4.78577C5.29849 4.8105 5.18004 4.84304 5.06454 4.87853C4.9374 4.9176 4.7981 4.94791 4.68413 4.99558C4.56694 5.04459 4.45431 5.13388 4.33299 5.17115C4.20584 5.21022 4.06598 5.26114 3.95258 5.32244Z" fill="#761B00"/>
<path d="M17.7043 4.25125C17.755 4.17718 17.836 4.09639 17.9368 4.07638L18.0176 4.04935C18.1467 4.02924 18.308 4.04924 18.4988 4.04935C18.8582 4.04955 18.9533 4.0671 19.094 4.08654C19.2155 4.10331 19.3236 4.10945 19.4544 4.12695C19.5797 4.14373 19.7288 4.14401 19.8486 4.16737C19.9697 4.19102 20.0947 4.20352 20.236 4.24831C20.3739 4.29207 20.476 4.31325 20.6266 4.38645C20.7377 4.44041 20.8439 4.40807 20.9957 4.46062C21.1705 4.52115 21.2519 4.5447 21.3727 4.57501C21.5076 4.60886 21.6139 4.65082 21.7027 4.6998C21.8309 4.77054 21.9516 4.81099 22.0394 4.85804C22.1272 4.90513 22.273 4.93642 22.4134 5.01972C22.5043 5.07368 22.7144 5.13433 22.8276 5.22859C22.9085 5.29599 22.9942 5.32664 23.1345 5.40724C23.2925 5.49809 23.3666 5.57557 23.4781 5.63976C23.6765 5.75394 23.7331 5.82961 23.9024 5.91926C24.0742 6.0102 24.1874 6.1003 24.2895 6.17522C24.404 6.25919 24.4926 6.30627 24.5622 6.39409C24.6263 6.47503 24.7125 6.58177 24.8116 6.6365C24.9093 6.69046 24.9977 6.76422 25.0709 6.85234C25.1999 7.00776 25.4676 7.24188 25.5523 7.38436C25.5964 7.45843 25.6575 7.53199 25.7378 7.60324C25.8256 7.68114 25.9108 7.77752 25.9532 7.8694C25.9937 7.95721 26.0547 8.06994 26.142 8.16921C26.216 8.25348 26.2917 8.34338 26.344 8.45558C26.3911 8.55663 26.4199 8.63665 26.4449 8.71821C26.4719 8.80602 26.5031 8.94531 26.5663 9.05844C26.6134 9.14271 26.654 9.23683 26.6874 9.34137C26.7144 9.42565 26.7422 9.53313 26.7683 9.63108C26.7817 9.68151 26.8319 10.0402 26.7849 10.5319C26.7613 10.7797 26.7465 10.9279 26.7311 11.0526C26.714 11.1908 26.697 11.314 26.667 11.423C26.64 11.521 26.5794 11.6253 26.5458 11.7092C26.505 11.8108 26.4524 11.9398 26.4009 12.0124C26.3434 12.0933 26.2169 12.1884 26.1448 12.3156C26.0875 12.4167 26.0224 12.4996 25.9018 12.6158C25.7169 12.7938 25.662 12.8851 25.4943 12.9725C25.3462 13.0497 25.2403 13.0929 25.1476 13.144C25.0499 13.198 24.9282 13.2365 24.6959 13.3024C24.4695 13.3665 24.285 13.4314 24.1978 13.4471C24.0863 13.4672 23.9798 13.4849 23.8371 13.5077C23.6684 13.5347 23.264 13.535 22.9568 13.5312C22.6909 13.5278 22.4968 13.5202 22.4429 13.5075C22.3281 13.4805 22.1984 13.4415 22.0994 13.4098C22.0047 13.3795 21.8632 13.356 21.7592 13.302C21.6749 13.2582 21.5879 13.2317 21.4593 13.1638C21.3309 13.0961 21.209 13.032 21.1125 12.9854C21.0213 12.9413 20.9172 12.87 20.8059 12.7831C20.698 12.6988 20.6002 12.6229 20.5196 12.5541C20.4288 12.4765 20.3746 12.3962 20.3042 12.3149C20.24 12.2409 20.1597 12.1867 20.0784 12.1163C20.0044 12.0521 19.9801 11.941 19.9101 11.8534C19.8427 11.7692 19.7723 11.7192 19.6945 11.648C19.6135 11.5739 19.5578 11.4999 19.4959 11.4088C19.4106 11.2833 19.2547 11.1285 19.1926 11.0248C19.1422 10.9406 19.1069 10.8575 19.0613 10.7687C18.9939 10.6374 18.9302 10.5715 18.8761 10.459C18.8322 10.3678 18.7807 10.2641 18.7481 10.149C18.7109 10.0174 18.6712 9.89045 18.6201 9.79205C18.5763 9.70778 18.5437 9.60989 18.4988 9.52599C18.4482 9.43131 18.4068 9.32465 18.3573 9.23275C18.2865 9.10149 18.2512 9.00566 18.2159 8.90939C18.1673 8.77665 18.1266 8.68542 18.0712 8.56104L18.0643 8.54572C18.0238 8.45477 17.977 8.37132 17.933 8.27289C17.8755 8.14435 17.8083 8.01037 17.7916 7.91255C17.7748 7.81453 17.7588 7.70776 17.7343 7.59252C17.7142 7.49804 17.7216 7.38217 17.6669 7.23198C17.6265 7.12093 17.5701 7.04953 17.5187 6.94248C17.4781 6.8582 17.4041 6.78087 17.3942 6.656C17.384 6.52798 17.3671 6.43267 17.347 6.31931C17.3302 6.22483 17.2971 6.11911 17.2931 5.96786C17.2829 5.57812 17.2716 5.2812 17.2865 5.08975C17.2967 4.95849 17.2842 4.87061 17.3336 4.71253C17.3642 4.61492 17.4246 4.54096 17.4888 4.47022C17.5529 4.39949 17.6383 4.34765 17.7043 4.25125Z" fill="#761B00"/>
<path d="M16.96 10.3329C17.0352 10.2774 17.1014 10.2234 17.1861 10.1973C17.2252 10.1843 17.3297 10.1535 17.4013 10.1568C17.5058 10.1864 17.5798 10.2314 17.6625 10.2843C17.7344 10.3303 17.7997 10.3954 17.8782 10.4477C17.9567 10.5001 18.0365 10.555 18.0905 10.6472C18.1461 10.742 18.2003 10.8194 18.2309 10.8988C18.2637 10.984 18.3078 11.0815 18.3716 11.1536C18.4469 11.2388 18.517 11.3404 18.561 11.4281C18.6037 11.5133 18.6331 11.6192 18.6952 11.6897C18.7931 11.8007 18.8523 11.8735 18.914 11.9608C18.9762 12.0489 19.0423 12.1136 19.0936 12.1961C19.1527 12.2909 19.2099 12.3811 19.2898 12.4246C19.3683 12.4673 19.4272 12.5518 19.5482 12.6668C19.682 12.794 19.7881 12.8494 19.8387 12.9411C19.891 13.0359 19.9284 13.1416 19.9923 13.2319C20.0479 13.3104 20.1002 13.4017 20.1327 13.5031C20.1588 13.5849 20.2884 13.677 20.2043 13.9217C20.1651 14.0358 20.1225 14.1103 20.0538 14.1762C19.9753 14.2515 19.9092 14.3246 19.8186 14.3623C19.7401 14.395 19.6447 14.397 19.5146 14.4308C19.4264 14.4538 19.3222 14.4787 18.9577 14.4831C18.6915 14.4863 18.2062 14.4917 17.947 14.483C17.6554 14.4732 17.5888 14.4747 17.5245 14.4634C17.3936 14.4405 17.2911 14.4086 17.2043 14.3882C17.0933 14.362 17.0175 14.3166 16.9332 14.2868C16.8317 14.2511 16.7214 14.225 16.6228 14.179C16.5243 14.133 16.331 14.1291 16.2012 14.0352C16.1197 13.9762 16.0238 13.9048 15.9232 13.7995C15.7734 13.6429 15.7367 13.5634 15.6982 13.4861C15.6558 13.401 15.6089 13.3126 15.5839 13.2313C15.5578 13.1461 15.4841 13.0538 15.5089 12.8094C15.5252 12.6489 15.5415 12.4937 15.5645 12.4045C15.5907 12.303 15.6167 12.2119 15.6429 12.1136C15.6691 12.0156 15.6802 11.93 15.7247 11.8589C15.7738 11.7803 15.8181 11.7047 15.8554 11.6236C15.8914 11.5451 15.952 11.4735 16.0123 11.3883C16.0679 11.3098 16.0887 11.2216 16.1397 11.1497C16.2118 11.0483 16.2776 10.9565 16.3522 10.9015C16.4275 10.8459 16.4785 10.7725 16.5285 10.7021C16.5843 10.6236 16.6537 10.53 16.7411 10.4899C16.8196 10.4538 16.8854 10.388 16.96 10.3329Z" fill="#761B00"/>
</svg>
