<svg width="36" height="25" viewBox="0 0 36 25" fill="none" xmlns="http://www.w3.org/2000/svg">
<path d="M12.7844 1.21879C15.5087 1.24395 16.3426 1.03218 16.8186 1.03218C17.6009 0.888381 20.6325 1.27162 21.0855 1.29607C21.6809 1.36797 22.7769 1.54985 23.0638 1.64548C23.6397 1.83746 24.1558 1.80261 24.7317 1.99459C25.3077 2.18657 25.9681 2.30997 26.5252 2.5903C27.1012 2.88006 27.6908 3.21888 28.2509 3.45312C28.8268 3.69399 29.4232 4.0446 29.9765 4.46046C30.5525 4.89331 31.1554 5.33771 31.7022 5.85032C32.1407 6.26152 32.4254 6.78769 32.8246 7.38643C33.2085 7.96237 33.9038 8.74409 34.119 9.63627C34.5081 11.2488 34.4538 12.3523 34.4682 14.0971C34.4919 16.9725 34.4294 18.5968 34.2742 18.8683C34.2077 18.9847 34.1578 19.3429 33.8863 19.6441C33.7311 19.8163 33.5885 20.0256 33.4984 20.1484C33.0717 20.7303 33.0187 20.7973 32.4899 21.2345C31.9376 21.6911 31.4478 21.9828 30.8995 22.3207C30.0586 22.8387 29.4081 22.9703 28.8436 23.1353C28.2676 23.3035 27.5247 23.562 26.9816 23.562C26.3746 23.562 25.4604 23.9661 23.9066 23.8481C22.3355 23.7287 20.3337 23.6617 19.7622 23.5604C19.0885 23.4411 18.2926 23.2904 17.7108 23.1353C17.0888 22.9694 16.6169 22.5382 16.0233 22.2899C15.4474 22.0491 14.9179 21.7 14.4136 21.157C13.9655 20.6744 13.6882 20.3178 13.2887 19.8381C12.8091 19.2622 12.2414 18.8296 11.7759 18.4029C11.2933 17.9605 10.8527 17.5434 10.2631 17.2004C9.68713 16.8653 9.22714 16.7523 8.56924 16.5141C7.96958 16.2969 7.39036 16.0637 6.43519 15.9389C5.52204 15.8195 4.53912 15.9218 3.97904 15.6875C3.40311 15.4467 2.4273 15.1445 2.00074 14.7178C1.51547 14.2324 1.03088 13.7868 1.03085 11.8473C1.03084 11.0169 0.984811 10.0671 1.03093 9.17078C1.10355 7.75935 0.933668 6.93144 1.03092 6.18394C1.15243 5.24993 1.72914 4.55474 2.10168 4.16926C2.33254 3.93036 2.51869 3.71216 2.79768 3.59548C3.37362 3.35461 3.85607 2.81228 4.59962 2.69281C5.10389 2.61179 5.5753 2.4581 6.15123 2.26612C6.72716 2.07414 7.5921 1.92597 8.28469 1.87822C9.33805 1.8056 9.83476 1.52648 10.4437 1.46288C11.139 1.39026 11.7547 1.20927 12.7844 1.21879Z" fill="#FFF3C4" stroke="#FFF3C4" stroke-width="2" stroke-linecap="round"/>
<path d="M15.2181 2.42664C15.6318 2.43589 15.8344 2.48846 15.9924 2.45306C16.1242 2.43536 16.3197 2.41793 16.5297 2.40894C17.0995 2.36509 17.932 2.44977 18.2394 2.46204C18.9075 2.48872 19.4354 2.53629 19.9117 2.56771C20.3161 2.59439 21.7234 2.67535 22.5099 2.809C22.8192 2.86157 23.2026 2.94556 23.5402 3.01136C23.7692 3.05601 23.9775 3.13622 24.324 3.21398C24.5617 3.26735 24.7758 3.36155 25.0283 3.44302C25.3025 3.53152 25.7327 3.65066 25.997 3.76901C26.2524 3.8834 26.4691 3.93814 26.6749 4.0242C26.8865 4.1127 27.04 4.18743 27.29 4.30281C27.5196 4.40874 27.7732 4.50172 28.3002 4.85308C29.3567 5.55737 30.1342 6.0406 30.2311 6.16999L30.2412 6.18344C30.396 6.39017 30.5443 6.58818 30.7861 6.80427C31.0416 7.03252 31.2202 7.1423 31.3493 7.34107C31.4812 7.54396 31.6085 7.73673 31.8251 8.01947C32.0275 8.28365 32.0934 8.54358 32.2829 8.75018C32.485 8.9705 32.6062 9.17551 32.6787 9.39291C32.7492 9.60452 32.7478 9.82955 32.8462 10.0269C32.9605 10.2565 33.0256 10.5393 33.1013 10.7666C33.1719 10.9782 33.2506 11.2737 33.2506 12.2389C33.2506 12.6211 33.1796 12.8409 33.0921 13.0826C33.0123 13.303 32.8769 13.5 32.7925 13.7254C32.7133 13.937 32.4868 14.2055 32.2829 14.3769C32.0621 14.5626 31.9322 14.711 31.7002 15.0288C31.5329 15.2578 31.216 15.4898 30.9879 15.5794C30.7404 15.6766 30.4565 15.8829 30.2311 15.9673C30.0197 16.0465 29.9491 16.0911 29.6665 16.2697L29.6658 16.2702C29.4016 16.4371 29.1985 16.5372 28.9792 16.5779C28.6957 16.6305 28.356 16.7423 28.1248 16.7803C27.7436 16.8429 27.2691 17.0365 26.9622 17.0976C26.6542 17.1588 26.4434 17.2296 26.2318 17.2735C26.0202 17.3173 25.4596 17.3454 25.2469 17.3612C24.6581 17.405 24.0622 17.4432 23.2366 17.3612C22.7951 17.3173 22.3301 17.3794 21.5723 17.2555C21.1942 17.1937 20.8088 17.1404 20.4537 17.1147C19.8374 17.0701 19.4879 16.959 19.2135 16.9034C18.9931 16.8587 18.7457 16.7459 18.4974 16.6655C18.224 16.577 17.9496 16.4377 17.7074 16.3661C17.4081 16.2776 17.2055 16.1238 16.9857 15.9959C16.7741 15.8728 16.5346 15.8077 16.3075 15.6171C16.0872 15.4322 15.9028 15.2653 15.7089 15.0975C15.506 14.9218 15.2879 14.79 15.0836 14.6222C14.89 14.4632 14.697 14.2635 14.5645 14.0408C14.4493 13.8472 14.2269 13.7225 14.0179 13.5566C13.7625 13.3537 13.64 13.1305 13.4547 12.8871C13.287 12.6668 13.066 12.5056 12.8646 12.3503C12.635 12.1733 12.5203 11.8715 12.3275 11.725C12.1066 11.5573 11.781 11.355 11.556 11.2325C11.3444 11.1173 11.1374 10.9317 10.913 10.8539C10.6575 10.7654 10.4899 10.5749 10.2739 10.4591C10.0443 10.336 9.71843 10.3019 9.49811 10.1876C9.27778 10.0732 9.00788 10.061 8.79628 10.0172C8.58467 9.9733 8.41012 9.86529 7.17069 9.75298C6.68672 9.70913 6.33216 9.68776 6.12335 9.64449C5.91175 9.60064 5.65557 9.54582 5.39688 9.51523C5.09758 9.47983 4.81788 9.43771 4.61054 9.33417C4.39893 9.2285 4.15473 9.23494 3.97933 9.07485C3.79594 8.90748 3.53868 8.9473 3.40804 8.75232C3.28414 8.56739 3.02011 8.38773 2.87904 8.17613C2.73797 7.96453 2.45632 7.83607 2.41251 7.59495C2.35122 7.2576 2.23296 6.76075 2.42202 6.3705C2.54565 6.11531 2.6003 5.84997 2.7486 5.6491C2.89839 5.44621 3.13182 5.29832 3.32074 5.10273C3.56748 4.84727 3.76494 4.67603 3.97933 4.60176C4.23478 4.51326 4.4132 4.37608 4.61054 4.25265C4.81796 4.12291 5.07561 4.02644 5.29111 3.94575L5.30408 3.94089C5.51569 3.86164 5.74817 3.77113 5.99992 3.73853C6.27334 3.70313 6.51902 3.63286 6.73062 3.56233C6.94223 3.49179 7.14993 3.43776 7.36464 3.41281C7.59421 3.38612 7.8141 3.37808 8.02408 3.34088C8.27161 3.29702 8.57982 3.18817 8.87868 3.14724C9.20467 3.10259 9.66572 3.12485 9.96023 3.05168C10.1718 2.99911 10.4479 2.91752 10.7718 2.90216C11.3342 2.87548 11.575 2.76682 11.8805 2.74365C12.2324 2.71697 12.5114 2.65136 12.8593 2.63798C13.5533 2.6113 13.7616 2.55758 14.0288 2.53231C14.3109 2.50563 14.8021 2.41735 15.2181 2.42664Z" fill="#761B00"/>
<path d="M4.52974 5.04977C4.38964 5.1255 4.25006 5.19547 4.14547 5.25354C4.086 5.25354 3.94701 5.35743 3.90031 5.36932C3.85361 5.38121 3.66757 5.56327 3.66757 5.56327C3.66757 5.56327 3.61087 5.63854 3.53419 5.78154C3.45268 5.93354 3.37767 6.3434 3.48099 6.65334C3.52769 6.79344 3.52554 6.94491 3.61514 7.10233C3.6914 7.23631 3.80518 7.35564 3.96531 7.48696C4.15876 7.6456 4.39315 7.84878 4.53674 7.91829C4.71777 8.00592 4.86879 8.09206 5.02054 8.1866C5.16064 8.27388 5.31758 8.35459 5.4872 8.36711C5.95893 8.40191 6.62514 8.45635 6.80532 8.4661C7.13153 8.48377 7.38661 8.52587 7.66885 8.53607C8.1579 8.55373 8.39359 8.56382 8.81661 8.61775C9.04434 8.64679 9.30549 8.67185 9.46325 8.7227C9.62714 8.77552 9.82432 8.79238 10.0823 8.90985C10.4786 9.09036 10.6858 9.13963 10.9736 9.28853C11.1545 9.38211 11.4362 9.47625 11.6734 9.63852C11.9122 9.80189 12.2094 9.93589 12.3668 10.0991C12.5187 10.2567 12.7176 10.3751 12.8743 10.4839C13.1015 10.6415 13.2376 10.7627 13.4104 10.8802C13.5563 10.9794 13.7308 11.031 13.8769 11.1368C14.0461 11.2592 14.1965 11.3369 14.3842 11.4808C14.5358 11.5972 14.6477 11.6997 14.7863 11.7897C14.9206 11.877 15.0501 11.9651 15.2062 12.0404C15.3754 12.1219 15.4794 12.2535 15.626 12.2791C15.7952 12.3087 15.935 12.3759 16.104 12.3958L16.1055 12.396C16.2529 12.4133 16.6917 12.4649 16.9786 12.3488C17.1364 12.2849 17.3164 12.3001 17.4683 12.2088C17.6142 12.1212 17.7419 12.0131 17.8939 11.9055C18.034 11.8064 18.1625 11.7023 18.2845 11.5907C18.4187 11.4679 18.5052 11.2945 18.5697 11.1654L18.5699 11.165C18.6399 11.0249 18.7488 10.9201 18.8442 10.7742C18.9547 10.6051 19.0603 10.4498 19.1531 10.2904C19.2346 10.1503 19.2667 10.0061 19.3278 9.84142C19.3864 9.68365 19.4155 9.51607 19.4737 9.34573C19.5375 9.15892 19.6213 9.00302 19.6367 8.81505C19.6544 8.59921 19.6582 8.01541 19.6482 7.51215C19.6306 6.61713 19.5994 6.45571 19.5723 6.29652C19.5375 6.0917 19.5056 5.86177 19.4674 5.70778C19.4326 5.56767 19.4152 5.4203 19.3567 5.25878C19.3038 5.11291 19.2652 4.9469 19.1464 4.83918C19.024 4.72811 18.8855 4.63626 18.7733 4.51262C18.6623 4.39018 18.6078 4.21885 18.4818 4.10455C18.3593 3.99349 18.243 3.90052 18.1027 3.81893C17.9626 3.73742 17.8326 3.6202 17.683 3.57423C17.5424 3.53105 17.3996 3.48971 17.2618 3.44982L17.2282 3.44007C17.0881 3.39949 16.9177 3.39843 16.5982 3.32358C16.4234 3.28265 16.2855 3.20269 15.781 3.19537C15.3831 3.1896 14.6438 3.17568 14.2392 3.19555C13.648 3.22458 13.4842 3.24088 13.3452 3.26551C13.1813 3.29455 12.8699 3.25169 12.4761 3.33548C12.2837 3.37641 12.0035 3.39795 11.7881 3.4406C11.4658 3.50444 11.1384 3.51116 11.0014 3.54537C10.8375 3.5863 10.6067 3.62438 10.4239 3.63859C10.1966 3.65626 9.87399 3.70124 9.63711 3.73777C9.48511 3.76121 9.29559 3.76753 8.85526 3.82522C8.63365 3.85426 8.42618 3.88659 8.23766 3.91845C8.06275 3.94801 7.87532 3.98917 7.7131 4.0234C7.573 4.05296 7.43138 4.11572 7.26411 4.16927C7.11823 4.21597 6.90509 4.22523 6.72766 4.27422C6.55852 4.32092 6.42161 4.37808 6.27884 4.4082C6.13874 4.43776 5.99713 4.47667 5.85906 4.51909C5.70706 4.56579 5.54054 4.60204 5.40429 4.65902C5.26419 4.71761 5.12955 4.82435 4.98451 4.86891C4.83251 4.91561 4.66531 4.97648 4.52974 5.04977Z" fill="#FFF3C4"/>
<path d="M20.969 3.76919C21.0297 3.68065 21.1264 3.58406 21.247 3.56015L21.3436 3.52784C21.4979 3.5038 21.6907 3.5277 21.9189 3.52783C22.3484 3.52807 22.4622 3.54906 22.6304 3.57229C22.7756 3.59234 22.9048 3.59968 23.0612 3.62061C23.2109 3.64066 23.3893 3.641 23.5324 3.66893C23.6772 3.69719 23.8267 3.71213 23.9955 3.76569C24.1604 3.818 24.2825 3.84332 24.4626 3.93082C24.5953 3.99533 24.7223 3.95667 24.9037 4.01949C25.1127 4.09185 25.21 4.12001 25.3544 4.15624C25.5157 4.19671 25.6428 4.24687 25.749 4.30543C25.9023 4.38999 26.0466 4.43835 26.1515 4.4946C26.2564 4.55089 26.4307 4.5883 26.5985 4.68788C26.7073 4.75239 26.9584 4.82489 27.0937 4.93757C27.1905 5.01815 27.2929 5.05479 27.4606 5.15115C27.6495 5.25975 27.7381 5.35238 27.8714 5.42911C28.1085 5.56562 28.1762 5.65607 28.3787 5.76324C28.584 5.87197 28.7193 5.97967 28.8414 6.06923C28.9783 6.16962 29.0841 6.2259 29.1674 6.33089C29.2441 6.42765 29.347 6.55526 29.4655 6.62069C29.5823 6.68519 29.688 6.77337 29.7755 6.87872C29.9297 7.06451 30.2498 7.34439 30.3511 7.51473C30.4038 7.60327 30.4768 7.69121 30.5728 7.77638C30.6777 7.86952 30.7796 7.98473 30.8303 8.09457C30.8787 8.19955 30.9516 8.3343 31.056 8.45298C31.1445 8.55373 31.2349 8.6612 31.2974 8.79533C31.3537 8.91613 31.3882 9.0118 31.4181 9.10929C31.4504 9.21427 31.4876 9.38078 31.5632 9.51603C31.6195 9.61677 31.668 9.72929 31.708 9.85427C31.7403 9.95502 31.7735 10.0835 31.8047 10.2006C31.8207 10.2609 31.8807 10.6897 31.8246 11.2775C31.7963 11.5737 31.7787 11.7508 31.7602 11.9C31.7398 12.0652 31.7195 12.2125 31.6836 12.3428C31.6514 12.4599 31.5789 12.5846 31.5387 12.685C31.49 12.8064 31.4271 12.9606 31.3654 13.0474C31.2967 13.1441 31.1456 13.2578 31.0593 13.4099C30.9908 13.5307 30.913 13.6298 30.7688 13.7687C30.5477 13.9815 30.4821 14.0907 30.2817 14.1951C30.1047 14.2874 29.978 14.3391 29.8673 14.4002C29.7505 14.4647 29.6049 14.5108 29.3272 14.5895C29.0566 14.6662 28.836 14.7437 28.7318 14.7625C28.5985 14.7865 28.4711 14.8077 28.3006 14.835C28.0989 14.8672 27.6155 14.8676 27.2482 14.863C26.9303 14.859 26.6983 14.8499 26.6338 14.8347C26.4966 14.8025 26.3416 14.7558 26.2232 14.7179C26.11 14.6817 25.9408 14.6536 25.8165 14.589C25.7157 14.5367 25.6117 14.505 25.4579 14.4239C25.3045 14.343 25.1587 14.2663 25.0434 14.2106C24.9344 14.1579 24.81 14.0727 24.6769 13.9687L24.6497 13.9475C24.5314 13.8552 24.4241 13.7714 24.3346 13.695C24.226 13.6022 24.1613 13.5062 24.0771 13.4091C24.0004 13.3205 23.9044 13.2558 23.8072 13.1716C23.7187 13.0949 23.6896 12.962 23.606 12.8574C23.5254 12.7566 23.4412 12.6969 23.3482 12.6118C23.2514 12.5232 23.1848 12.4347 23.1108 12.3258C23.0088 12.1758 22.8224 11.9907 22.7483 11.8668C22.688 11.7661 22.6458 11.6667 22.5912 11.5606C22.5107 11.4037 22.4345 11.3248 22.3698 11.1903C22.3174 11.0814 22.2558 10.9574 22.2169 10.8197C22.1724 10.6624 22.1249 10.5107 22.0638 10.393C22.0115 10.2923 21.9725 10.1753 21.9189 10.075C21.8583 9.96178 21.8088 9.83428 21.7496 9.72441C21.6651 9.56749 21.6228 9.45293 21.5806 9.33785C21.5225 9.17916 21.4739 9.0701 21.4076 8.9214L21.3994 8.90309C21.351 8.79437 21.295 8.69459 21.2424 8.57693C21.1736 8.42327 21.0934 8.26309 21.0734 8.14615C21.0533 8.02898 21.0342 7.90134 21.0049 7.76358C20.9808 7.65063 20.9897 7.51211 20.9243 7.33256C20.876 7.1998 20.8086 7.11445 20.7471 6.98647C20.6987 6.88572 20.6102 6.79327 20.5983 6.644C20.5861 6.49095 20.5659 6.37701 20.5419 6.24149C20.5218 6.12855 20.4822 6.00215 20.4775 5.82135C20.4653 5.35542 20.4517 5.00047 20.4695 4.7716C20.4817 4.61468 20.4668 4.50963 20.5259 4.32065C20.5624 4.20395 20.6346 4.11554 20.7113 4.03097C20.7881 3.94641 20.8901 3.88445 20.969 3.76919Z" fill="#FFF3C4"/>
<path d="M20.0795 11.0397C20.1695 10.9732 20.2486 10.9087 20.3499 10.8775C20.3967 10.862 20.5216 10.8251 20.6071 10.8291C20.732 10.8645 20.8206 10.9183 20.9194 10.9815C21.0053 11.0365 21.0834 11.1143 21.1772 11.1769C21.2711 11.2395 21.3665 11.3052 21.4311 11.4154C21.4975 11.5287 21.5623 11.6212 21.5989 11.7161C21.6382 11.8179 21.6909 11.9345 21.7671 12.0208C21.8571 12.1226 21.9409 12.2441 21.9935 12.3489C22.0446 12.4507 22.0797 12.5774 22.1539 12.6616C22.271 12.7943 22.3418 12.8814 22.4155 12.9857C22.4899 13.0911 22.5689 13.1684 22.6303 13.267C22.7008 13.3803 22.7693 13.4882 22.8648 13.5401C22.9586 13.5912 23.029 13.6922 23.1737 13.8297C23.3337 13.9817 23.4604 14.048 23.5209 14.1576C23.5835 14.2709 23.6281 14.3973 23.7046 14.5052C23.771 14.5991 23.8336 14.7082 23.8724 14.8295C23.9037 14.9272 24.0585 15.0374 23.958 15.3299C23.9112 15.4663 23.8603 15.5554 23.7782 15.6341C23.6843 15.7241 23.6053 15.8116 23.4969 15.8566C23.403 15.8957 23.2891 15.8981 23.1335 15.9386C23.028 15.966 22.9035 15.9957 22.4677 16.001C22.1496 16.0049 21.5693 16.0113 21.2595 16.0009C20.9109 15.9892 20.8313 15.9909 20.7544 15.9775C20.598 15.95 20.4754 15.912 20.3717 15.8876C20.2389 15.8563 20.1483 15.802 20.0475 15.7664C19.9262 15.7236 19.7944 15.6925 19.6765 15.6375C19.5587 15.5825 19.3277 15.5779 19.1725 15.4656C19.075 15.395 18.9604 15.3097 18.8401 15.1838C18.6611 14.9966 18.6172 14.9016 18.5712 14.8092C18.5204 14.7074 18.4644 14.6017 18.4345 14.5045C18.4032 14.4027 18.3152 14.2924 18.3449 14.0001C18.3643 13.8083 18.3838 13.6228 18.4113 13.5161C18.4426 13.3948 18.4737 13.2858 18.5051 13.1684C18.5364 13.0512 18.5496 12.9489 18.6028 12.8638C18.6615 12.77 18.7145 12.6796 18.759 12.5826C18.8022 12.4887 18.8746 12.4031 18.9466 12.3013C19.0131 12.2075 19.0379 12.1021 19.099 12.0161C19.1851 11.8948 19.2638 11.7852 19.3529 11.7194C19.4429 11.6529 19.504 11.5652 19.5638 11.481C19.6305 11.3871 19.7134 11.2753 19.8178 11.2273C19.9117 11.1842 19.9904 11.1054 20.0795 11.0397Z" fill="#FFF3C4"/>
</svg>
